<?xml version="1.0" encoding="UTF-8" standalone="no"?>
<!DOCTYPE svg PUBLIC "-//W3C//DTD SVG 1.1//EN"
 "http://www.w3.org/Graphics/SVG/1.1/DTD/svg11.dtd">
<!-- Generated by graphviz version 2.42.3 (20191010.1750)
 -->
<!-- Title: snakemake_dag Pages: 1 -->
<svg width="241pt" height="188pt"
 viewBox="0.00 0.00 240.50 188.00" xmlns="http://www.w3.org/2000/svg" xmlns:xlink="http://www.w3.org/1999/xlink">
<g id="graph0" class="graph" transform="scale(1 1) rotate(0) translate(4 184)">
<title>snakemake_dag</title>
<polygon fill="white" stroke="transparent" points="-4,4 -4,-184 236.5,-184 236.5,4 -4,4"/>
<!-- 0 -->
<g id="node1" class="node">
<title>0</title>
<path fill="none" stroke="#56c1d8" stroke-width="2" d="M140.5,-36C140.5,-36 101.5,-36 101.5,-36 95.5,-36 89.5,-30 89.5,-24 89.5,-24 89.5,-12 89.5,-12 89.5,-6 95.5,0 101.5,0 101.5,0 140.5,0 140.5,0 146.5,0 152.5,-6 152.5,-12 152.5,-12 152.5,-24 152.5,-24 152.5,-30 146.5,-36 140.5,-36"/>
<text text-anchor="middle" x="121" y="-15.5" font-family="sans" font-size="10.00">correct_qtl</text>
</g>
<!-- 1 -->
<g id="node2" class="node">
<title>1</title>
<path fill="none" stroke="#56d88a" stroke-width="2" d="M58,-108C58,-108 12,-108 12,-108 6,-108 0,-102 0,-96 0,-96 0,-84 0,-84 0,-78 6,-72 12,-72 12,-72 58,-72 58,-72 64,-72 70,-78 70,-84 70,-84 70,-96 70,-96 70,-102 64,-108 58,-108"/>
<text text-anchor="middle" x="35" y="-87.5" font-family="sans" font-size="10.00">bhsa_tables</text>
</g>
<!-- 1&#45;&gt;0 -->
<g id="edge1" class="edge">
<title>1&#45;&gt;0</title>
<path fill="none" stroke="grey" stroke-width="2" d="M56.26,-71.7C67.09,-62.88 80.42,-52.03 92.16,-42.47"/>
<polygon fill="grey" stroke="grey" stroke-width="2" points="94.44,-45.13 99.99,-36.1 90.02,-39.7 94.44,-45.13"/>
</g>
<!-- 2 -->
<g id="node3" class="node">
<title>2</title>
<path fill="none" stroke="#d8bc56" stroke-width="2" stroke-dasharray="5,2" d="M145.5,-180C145.5,-180 96.5,-180 96.5,-180 90.5,-180 84.5,-174 84.5,-168 84.5,-168 84.5,-156 84.5,-156 84.5,-150 90.5,-144 96.5,-144 96.5,-144 145.5,-144 145.5,-144 151.5,-144 157.5,-150 157.5,-156 157.5,-156 157.5,-168 157.5,-168 157.5,-174 151.5,-180 145.5,-180"/>
<text text-anchor="middle" x="121" y="-159.5" font-family="sans" font-size="10.00">get_samples</text>
</g>
<!-- 2&#45;&gt;1 -->
<g id="edge4" class="edge">
<title>2&#45;&gt;1</title>
<path fill="none" stroke="grey" stroke-width="2" d="M99.74,-143.7C88.91,-134.88 75.58,-124.03 63.84,-114.47"/>
<polygon fill="grey" stroke="grey" stroke-width="2" points="65.98,-111.7 56.01,-108.1 61.56,-117.13 65.98,-111.7"/>
</g>
<!-- 3 -->
<g id="node4" class="node">
<title>3</title>
<path fill="none" stroke="#d85656" stroke-width="2" d="M141.5,-108C141.5,-108 100.5,-108 100.5,-108 94.5,-108 88.5,-102 88.5,-96 88.5,-96 88.5,-84 88.5,-84 88.5,-78 94.5,-72 100.5,-72 100.5,-72 141.5,-72 141.5,-72 147.5,-72 153.5,-78 153.5,-84 153.5,-84 153.5,-96 153.5,-96 153.5,-102 147.5,-108 141.5,-108"/>
<text text-anchor="middle" x="121" y="-87.5" font-family="sans" font-size="10.00">eng_tables</text>
</g>
<!-- 2&#45;&gt;3 -->
<g id="edge5" class="edge">
<title>2&#45;&gt;3</title>
<path fill="none" stroke="grey" stroke-width="2" d="M121,-143.7C121,-135.98 121,-126.71 121,-118.11"/>
<polygon fill="grey" stroke="grey" stroke-width="2" points="124.5,-118.1 121,-108.1 117.5,-118.1 124.5,-118.1"/>
</g>
<!-- 4 -->
<g id="node5" class="node">
<title>4</title>
<path fill="none" stroke="#88d856" stroke-width="2" d="M220.5,-108C220.5,-108 183.5,-108 183.5,-108 177.5,-108 171.5,-102 171.5,-96 171.5,-96 171.5,-84 171.5,-84 171.5,-78 177.5,-72 183.5,-72 183.5,-72 220.5,-72 220.5,-72 226.5,-72 232.5,-78 232.5,-84 232.5,-84 232.5,-96 232.5,-96 232.5,-102 226.5,-108 220.5,-108"/>
<text text-anchor="middle" x="202" y="-87.5" font-family="sans" font-size="10.00">lxx_tables</text>
</g>
<!-- 2&#45;&gt;4 -->
<g id="edge6" class="edge">
<title>2&#45;&gt;4</title>
<path fill="none" stroke="grey" stroke-width="2" d="M141.02,-143.7C151.13,-134.97 163.54,-124.24 174.52,-114.75"/>
<polygon fill="grey" stroke="grey" stroke-width="2" points="176.93,-117.29 182.21,-108.1 172.35,-111.99 176.93,-117.29"/>
</g>
<!-- 3&#45;&gt;0 -->
<g id="edge2" class="edge">
<title>3&#45;&gt;0</title>
<path fill="none" stroke="grey" stroke-width="2" d="M121,-71.7C121,-63.98 121,-54.71 121,-46.11"/>
<polygon fill="grey" stroke="grey" stroke-width="2" points="124.5,-46.1 121,-36.1 117.5,-46.1 124.5,-46.1"/>
</g>
<!-- 4&#45;&gt;0 -->
<g id="edge3" class="edge">
<title>4&#45;&gt;0</title>
<path fill="none" stroke="grey" stroke-width="2" d="M181.98,-71.7C171.87,-62.97 159.46,-52.24 148.48,-42.75"/>
<polygon fill="grey" stroke="grey" stroke-width="2" points="150.65,-39.99 140.79,-36.1 146.07,-45.29 150.65,-39.99"/>
</g>
</g>
</svg>
