<?xml version="1.0" encoding="utf-8" standalone="no"?>
<!DOCTYPE svg PUBLIC "-//W3C//DTD SVG 1.1//EN"
  "http://www.w3.org/Graphics/SVG/1.1/DTD/svg11.dtd">
<!-- Created with matplotlib (https://matplotlib.org/) -->
<svg height="639.136875pt" version="1.1" viewBox="0 0 928.50625 639.136875" width="928.50625pt" xmlns="http://www.w3.org/2000/svg" xmlns:xlink="http://www.w3.org/1999/xlink">
 <metadata>
  <rdf:RDF xmlns:cc="http://creativecommons.org/ns#" xmlns:dc="http://purl.org/dc/elements/1.1/" xmlns:rdf="http://www.w3.org/1999/02/22-rdf-syntax-ns#">
   <cc:Work>
    <dc:type rdf:resource="http://purl.org/dc/dcmitype/StillImage"/>
    <dc:date>2020-11-03T11:31:20.564121</dc:date>
    <dc:format>image/svg+xml</dc:format>
    <dc:creator>
     <cc:Agent>
      <dc:title>Matplotlib v3.3.2, https://matplotlib.org/</dc:title>
     </cc:Agent>
    </dc:creator>
   </cc:Work>
  </rdf:RDF>
 </metadata>
 <defs>
  <style type="text/css">*{stroke-linecap:butt;stroke-linejoin:round;}</style>
 </defs>
 <g id="figure_1">
  <g id="patch_1">
   <path d="M -0 639.136875 
L 928.50625 639.136875 
L 928.50625 0 
L -0 0 
z
" style="fill:none;"/>
  </g>
  <g id="axes_1">
   <g id="patch_2">
    <path d="M 43.78125 264.865 
L 458.70625 264.865 
L 458.70625 45.84 
L 43.78125 45.84 
z
" style="fill:#ffffff;"/>
   </g>
   <g id="matplotlib.axis_1">
    <g id="xtick_1">
     <g id="line2d_1">
      <defs>
       <path d="M 0 0 
L 0 3.5 
" id="m53c91fd257" style="stroke:#000000;stroke-width:0.8;"/>
      </defs>
      <g>
       <use style="stroke:#000000;stroke-width:0.8;" x="73.41875" xlink:href="#m53c91fd257" y="264.865"/>
      </g>
     </g>
     <g id="text_1">
      <!-- PAST -->
      <g transform="translate(76.178125 296.554062)rotate(-90)scale(0.1 -0.1)">
       <defs>
        <path d="M 19.671875 64.796875 
L 19.671875 37.40625 
L 32.078125 37.40625 
Q 38.96875 37.40625 42.71875 40.96875 
Q 46.484375 44.53125 46.484375 51.125 
Q 46.484375 57.671875 42.71875 61.234375 
Q 38.96875 64.796875 32.078125 64.796875 
z
M 9.8125 72.90625 
L 32.078125 72.90625 
Q 44.34375 72.90625 50.609375 67.359375 
Q 56.890625 61.8125 56.890625 51.125 
Q 56.890625 40.328125 50.609375 34.8125 
Q 44.34375 29.296875 32.078125 29.296875 
L 19.671875 29.296875 
L 19.671875 0 
L 9.8125 0 
z
" id="DejaVuSans-80"/>
        <path d="M 34.1875 63.1875 
L 20.796875 26.90625 
L 47.609375 26.90625 
z
M 28.609375 72.90625 
L 39.796875 72.90625 
L 67.578125 0 
L 57.328125 0 
L 50.6875 18.703125 
L 17.828125 18.703125 
L 11.1875 0 
L 0.78125 0 
z
" id="DejaVuSans-65"/>
        <path d="M 53.515625 70.515625 
L 53.515625 60.890625 
Q 47.90625 63.578125 42.921875 64.890625 
Q 37.9375 66.21875 33.296875 66.21875 
Q 25.25 66.21875 20.875 63.09375 
Q 16.5 59.96875 16.5 54.203125 
Q 16.5 49.359375 19.40625 46.890625 
Q 22.3125 44.4375 30.421875 42.921875 
L 36.375 41.703125 
Q 47.40625 39.59375 52.65625 34.296875 
Q 57.90625 29 57.90625 20.125 
Q 57.90625 9.515625 50.796875 4.046875 
Q 43.703125 -1.421875 29.984375 -1.421875 
Q 24.8125 -1.421875 18.96875 -0.25 
Q 13.140625 0.921875 6.890625 3.21875 
L 6.890625 13.375 
Q 12.890625 10.015625 18.65625 8.296875 
Q 24.421875 6.59375 29.984375 6.59375 
Q 38.421875 6.59375 43.015625 9.90625 
Q 47.609375 13.234375 47.609375 19.390625 
Q 47.609375 24.75 44.3125 27.78125 
Q 41.015625 30.8125 33.5 32.328125 
L 27.484375 33.5 
Q 16.453125 35.6875 11.515625 40.375 
Q 6.59375 45.0625 6.59375 53.421875 
Q 6.59375 63.09375 13.40625 68.65625 
Q 20.21875 74.21875 32.171875 74.21875 
Q 37.3125 74.21875 42.625 73.28125 
Q 47.953125 72.359375 53.515625 70.515625 
z
" id="DejaVuSans-83"/>
        <path d="M -0.296875 72.90625 
L 61.375 72.90625 
L 61.375 64.59375 
L 35.5 64.59375 
L 35.5 0 
L 25.59375 0 
L 25.59375 64.59375 
L -0.296875 64.59375 
z
" id="DejaVuSans-84"/>
       </defs>
       <use xlink:href="#DejaVuSans-80"/>
       <use x="53.927734" xlink:href="#DejaVuSans-65"/>
       <use x="122.335938" xlink:href="#DejaVuSans-83"/>
       <use x="185.8125" xlink:href="#DejaVuSans-84"/>
      </g>
     </g>
    </g>
    <g id="xtick_2">
     <g id="line2d_2">
      <g>
       <use style="stroke:#000000;stroke-width:0.8;" x="132.69375" xlink:href="#m53c91fd257" y="264.865"/>
      </g>
     </g>
     <g id="text_2">
      <!-- PRES PERF -->
      <g transform="translate(135.453125 325.736875)rotate(-90)scale(0.1 -0.1)">
       <defs>
        <path d="M 44.390625 34.1875 
Q 47.5625 33.109375 50.5625 29.59375 
Q 53.5625 26.078125 56.59375 19.921875 
L 66.609375 0 
L 56 0 
L 46.6875 18.703125 
Q 43.0625 26.03125 39.671875 28.421875 
Q 36.28125 30.8125 30.421875 30.8125 
L 19.671875 30.8125 
L 19.671875 0 
L 9.8125 0 
L 9.8125 72.90625 
L 32.078125 72.90625 
Q 44.578125 72.90625 50.734375 67.671875 
Q 56.890625 62.453125 56.890625 51.90625 
Q 56.890625 45.015625 53.6875 40.46875 
Q 50.484375 35.9375 44.390625 34.1875 
z
M 19.671875 64.796875 
L 19.671875 38.921875 
L 32.078125 38.921875 
Q 39.203125 38.921875 42.84375 42.21875 
Q 46.484375 45.515625 46.484375 51.90625 
Q 46.484375 58.296875 42.84375 61.546875 
Q 39.203125 64.796875 32.078125 64.796875 
z
" id="DejaVuSans-82"/>
        <path d="M 9.8125 72.90625 
L 55.90625 72.90625 
L 55.90625 64.59375 
L 19.671875 64.59375 
L 19.671875 43.015625 
L 54.390625 43.015625 
L 54.390625 34.71875 
L 19.671875 34.71875 
L 19.671875 8.296875 
L 56.78125 8.296875 
L 56.78125 0 
L 9.8125 0 
z
" id="DejaVuSans-69"/>
        <path id="DejaVuSans-32"/>
        <path d="M 9.8125 72.90625 
L 51.703125 72.90625 
L 51.703125 64.59375 
L 19.671875 64.59375 
L 19.671875 43.109375 
L 48.578125 43.109375 
L 48.578125 34.8125 
L 19.671875 34.8125 
L 19.671875 0 
L 9.8125 0 
z
" id="DejaVuSans-70"/>
       </defs>
       <use xlink:href="#DejaVuSans-80"/>
       <use x="60.302734" xlink:href="#DejaVuSans-82"/>
       <use x="129.785156" xlink:href="#DejaVuSans-69"/>
       <use x="192.96875" xlink:href="#DejaVuSans-83"/>
       <use x="256.445312" xlink:href="#DejaVuSans-32"/>
       <use x="288.232422" xlink:href="#DejaVuSans-80"/>
       <use x="348.535156" xlink:href="#DejaVuSans-69"/>
       <use x="411.71875" xlink:href="#DejaVuSans-82"/>
       <use x="481.201172" xlink:href="#DejaVuSans-70"/>
      </g>
     </g>
    </g>
    <g id="xtick_3">
     <g id="line2d_3">
      <g>
       <use style="stroke:#000000;stroke-width:0.8;" x="191.96875" xlink:href="#m53c91fd257" y="264.865"/>
      </g>
     </g>
     <g id="text_3">
      <!-- PRES -->
      <g transform="translate(194.728125 297.510312)rotate(-90)scale(0.1 -0.1)">
       <use xlink:href="#DejaVuSans-80"/>
       <use x="60.302734" xlink:href="#DejaVuSans-82"/>
       <use x="129.785156" xlink:href="#DejaVuSans-69"/>
       <use x="192.96875" xlink:href="#DejaVuSans-83"/>
      </g>
     </g>
    </g>
    <g id="xtick_4">
     <g id="line2d_4">
      <g>
       <use style="stroke:#000000;stroke-width:0.8;" x="251.24375" xlink:href="#m53c91fd257" y="264.865"/>
      </g>
     </g>
     <g id="text_4">
      <!-- MOD -->
      <g transform="translate(254.003125 296.065)rotate(-90)scale(0.1 -0.1)">
       <defs>
        <path d="M 9.8125 72.90625 
L 24.515625 72.90625 
L 43.109375 23.296875 
L 61.8125 72.90625 
L 76.515625 72.90625 
L 76.515625 0 
L 66.890625 0 
L 66.890625 64.015625 
L 48.09375 14.015625 
L 38.1875 14.015625 
L 19.390625 64.015625 
L 19.390625 0 
L 9.8125 0 
z
" id="DejaVuSans-77"/>
        <path d="M 39.40625 66.21875 
Q 28.65625 66.21875 22.328125 58.203125 
Q 16.015625 50.203125 16.015625 36.375 
Q 16.015625 22.609375 22.328125 14.59375 
Q 28.65625 6.59375 39.40625 6.59375 
Q 50.140625 6.59375 56.421875 14.59375 
Q 62.703125 22.609375 62.703125 36.375 
Q 62.703125 50.203125 56.421875 58.203125 
Q 50.140625 66.21875 39.40625 66.21875 
z
M 39.40625 74.21875 
Q 54.734375 74.21875 63.90625 63.9375 
Q 73.09375 53.65625 73.09375 36.375 
Q 73.09375 19.140625 63.90625 8.859375 
Q 54.734375 -1.421875 39.40625 -1.421875 
Q 24.03125 -1.421875 14.8125 8.828125 
Q 5.609375 19.09375 5.609375 36.375 
Q 5.609375 53.65625 14.8125 63.9375 
Q 24.03125 74.21875 39.40625 74.21875 
z
" id="DejaVuSans-79"/>
        <path d="M 19.671875 64.796875 
L 19.671875 8.109375 
L 31.59375 8.109375 
Q 46.6875 8.109375 53.6875 14.9375 
Q 60.6875 21.78125 60.6875 36.53125 
Q 60.6875 51.171875 53.6875 57.984375 
Q 46.6875 64.796875 31.59375 64.796875 
z
M 9.8125 72.90625 
L 30.078125 72.90625 
Q 51.265625 72.90625 61.171875 64.09375 
Q 71.09375 55.28125 71.09375 36.53125 
Q 71.09375 17.671875 61.125 8.828125 
Q 51.171875 0 30.078125 0 
L 9.8125 0 
z
" id="DejaVuSans-68"/>
       </defs>
       <use xlink:href="#DejaVuSans-77"/>
       <use x="86.279297" xlink:href="#DejaVuSans-79"/>
       <use x="164.990234" xlink:href="#DejaVuSans-68"/>
      </g>
     </g>
    </g>
    <g id="xtick_5">
     <g id="line2d_5">
      <g>
       <use style="stroke:#000000;stroke-width:0.8;" x="310.51875" xlink:href="#m53c91fd257" y="264.865"/>
      </g>
     </g>
     <g id="text_5">
      <!-- IMPV -->
      <g transform="translate(313.278125 296.313437)rotate(-90)scale(0.1 -0.1)">
       <defs>
        <path d="M 9.8125 72.90625 
L 19.671875 72.90625 
L 19.671875 0 
L 9.8125 0 
z
" id="DejaVuSans-73"/>
        <path d="M 28.609375 0 
L 0.78125 72.90625 
L 11.078125 72.90625 
L 34.1875 11.53125 
L 57.328125 72.90625 
L 67.578125 72.90625 
L 39.796875 0 
z
" id="DejaVuSans-86"/>
       </defs>
       <use xlink:href="#DejaVuSans-73"/>
       <use x="29.492188" xlink:href="#DejaVuSans-77"/>
       <use x="115.771484" xlink:href="#DejaVuSans-80"/>
       <use x="176.074219" xlink:href="#DejaVuSans-86"/>
      </g>
     </g>
    </g>
    <g id="xtick_6">
     <g id="line2d_6">
      <g>
       <use style="stroke:#000000;stroke-width:0.8;" x="369.79375" xlink:href="#m53c91fd257" y="264.865"/>
      </g>
     </g>
     <g id="text_6">
      <!-- PAST PERF -->
      <g transform="translate(372.553125 324.780625)rotate(-90)scale(0.1 -0.1)">
       <use xlink:href="#DejaVuSans-80"/>
       <use x="53.927734" xlink:href="#DejaVuSans-65"/>
       <use x="122.335938" xlink:href="#DejaVuSans-83"/>
       <use x="185.8125" xlink:href="#DejaVuSans-84"/>
       <use x="246.896484" xlink:href="#DejaVuSans-32"/>
       <use x="278.683594" xlink:href="#DejaVuSans-80"/>
       <use x="338.986328" xlink:href="#DejaVuSans-69"/>
       <use x="402.169922" xlink:href="#DejaVuSans-82"/>
       <use x="471.652344" xlink:href="#DejaVuSans-70"/>
      </g>
     </g>
    </g>
    <g id="xtick_7">
     <g id="line2d_7">
      <g>
       <use style="stroke:#000000;stroke-width:0.8;" x="429.06875" xlink:href="#m53c91fd257" y="264.865"/>
      </g>
     </g>
     <g id="text_7">
      <!-- FUT -->
      <g transform="translate(431.828125 291.043125)rotate(-90)scale(0.1 -0.1)">
       <defs>
        <path d="M 8.6875 72.90625 
L 18.609375 72.90625 
L 18.609375 28.609375 
Q 18.609375 16.890625 22.84375 11.734375 
Q 27.09375 6.59375 36.625 6.59375 
Q 46.09375 6.59375 50.34375 11.734375 
Q 54.59375 16.890625 54.59375 28.609375 
L 54.59375 72.90625 
L 64.5 72.90625 
L 64.5 27.390625 
Q 64.5 13.140625 57.4375 5.859375 
Q 50.390625 -1.421875 36.625 -1.421875 
Q 22.796875 -1.421875 15.734375 5.859375 
Q 8.6875 13.140625 8.6875 27.390625 
z
" id="DejaVuSans-85"/>
       </defs>
       <use xlink:href="#DejaVuSans-70"/>
       <use x="57.519531" xlink:href="#DejaVuSans-85"/>
       <use x="130.712891" xlink:href="#DejaVuSans-84"/>
      </g>
     </g>
    </g>
   </g>
   <g id="matplotlib.axis_2">
    <g id="ytick_1">
     <g id="line2d_8">
      <path clip-path="url(#p05c4535515)" d="M 43.78125 264.865 
L 458.70625 264.865 
" style="fill:none;stroke:#b0b0b0;stroke-linecap:square;stroke-width:0.8;"/>
     </g>
     <g id="line2d_9">
      <defs>
       <path d="M 0 0 
L -3.5 0 
" id="mb99c516a15" style="stroke:#000000;stroke-width:0.8;"/>
      </defs>
      <g>
       <use style="stroke:#000000;stroke-width:0.8;" x="43.78125" xlink:href="#mb99c516a15" y="264.865"/>
      </g>
     </g>
     <g id="text_8">
      <!-- 0.0 -->
      <g transform="translate(20.878125 268.664219)scale(0.1 -0.1)">
       <defs>
        <path d="M 31.78125 66.40625 
Q 24.171875 66.40625 20.328125 58.90625 
Q 16.5 51.421875 16.5 36.375 
Q 16.5 21.390625 20.328125 13.890625 
Q 24.171875 6.390625 31.78125 6.390625 
Q 39.453125 6.390625 43.28125 13.890625 
Q 47.125 21.390625 47.125 36.375 
Q 47.125 51.421875 43.28125 58.90625 
Q 39.453125 66.40625 31.78125 66.40625 
z
M 31.78125 74.21875 
Q 44.046875 74.21875 50.515625 64.515625 
Q 56.984375 54.828125 56.984375 36.375 
Q 56.984375 17.96875 50.515625 8.265625 
Q 44.046875 -1.421875 31.78125 -1.421875 
Q 19.53125 -1.421875 13.0625 8.265625 
Q 6.59375 17.96875 6.59375 36.375 
Q 6.59375 54.828125 13.0625 64.515625 
Q 19.53125 74.21875 31.78125 74.21875 
z
" id="DejaVuSans-48"/>
        <path d="M 10.6875 12.40625 
L 21 12.40625 
L 21 0 
L 10.6875 0 
z
" id="DejaVuSans-46"/>
       </defs>
       <use xlink:href="#DejaVuSans-48"/>
       <use x="63.623047" xlink:href="#DejaVuSans-46"/>
       <use x="95.410156" xlink:href="#DejaVuSans-48"/>
      </g>
     </g>
    </g>
    <g id="ytick_2">
     <g id="line2d_10">
      <path clip-path="url(#p05c4535515)" d="M 43.78125 221.06 
L 458.70625 221.06 
" style="fill:none;stroke:#b0b0b0;stroke-linecap:square;stroke-width:0.8;"/>
     </g>
     <g id="line2d_11">
      <g>
       <use style="stroke:#000000;stroke-width:0.8;" x="43.78125" xlink:href="#mb99c516a15" y="221.06"/>
      </g>
     </g>
     <g id="text_9">
      <!-- 0.2 -->
      <g transform="translate(20.878125 224.859219)scale(0.1 -0.1)">
       <defs>
        <path d="M 19.1875 8.296875 
L 53.609375 8.296875 
L 53.609375 0 
L 7.328125 0 
L 7.328125 8.296875 
Q 12.9375 14.109375 22.625 23.890625 
Q 32.328125 33.6875 34.8125 36.53125 
Q 39.546875 41.84375 41.421875 45.53125 
Q 43.3125 49.21875 43.3125 52.78125 
Q 43.3125 58.59375 39.234375 62.25 
Q 35.15625 65.921875 28.609375 65.921875 
Q 23.96875 65.921875 18.8125 64.3125 
Q 13.671875 62.703125 7.8125 59.421875 
L 7.8125 69.390625 
Q 13.765625 71.78125 18.9375 73 
Q 24.125 74.21875 28.421875 74.21875 
Q 39.75 74.21875 46.484375 68.546875 
Q 53.21875 62.890625 53.21875 53.421875 
Q 53.21875 48.921875 51.53125 44.890625 
Q 49.859375 40.875 45.40625 35.40625 
Q 44.1875 33.984375 37.640625 27.21875 
Q 31.109375 20.453125 19.1875 8.296875 
z
" id="DejaVuSans-50"/>
       </defs>
       <use xlink:href="#DejaVuSans-48"/>
       <use x="63.623047" xlink:href="#DejaVuSans-46"/>
       <use x="95.410156" xlink:href="#DejaVuSans-50"/>
      </g>
     </g>
    </g>
    <g id="ytick_3">
     <g id="line2d_12">
      <path clip-path="url(#p05c4535515)" d="M 43.78125 177.255 
L 458.70625 177.255 
" style="fill:none;stroke:#b0b0b0;stroke-linecap:square;stroke-width:0.8;"/>
     </g>
     <g id="line2d_13">
      <g>
       <use style="stroke:#000000;stroke-width:0.8;" x="43.78125" xlink:href="#mb99c516a15" y="177.255"/>
      </g>
     </g>
     <g id="text_10">
      <!-- 0.4 -->
      <g transform="translate(20.878125 181.054219)scale(0.1 -0.1)">
       <defs>
        <path d="M 37.796875 64.3125 
L 12.890625 25.390625 
L 37.796875 25.390625 
z
M 35.203125 72.90625 
L 47.609375 72.90625 
L 47.609375 25.390625 
L 58.015625 25.390625 
L 58.015625 17.1875 
L 47.609375 17.1875 
L 47.609375 0 
L 37.796875 0 
L 37.796875 17.1875 
L 4.890625 17.1875 
L 4.890625 26.703125 
z
" id="DejaVuSans-52"/>
       </defs>
       <use xlink:href="#DejaVuSans-48"/>
       <use x="63.623047" xlink:href="#DejaVuSans-46"/>
       <use x="95.410156" xlink:href="#DejaVuSans-52"/>
      </g>
     </g>
    </g>
    <g id="ytick_4">
     <g id="line2d_14">
      <path clip-path="url(#p05c4535515)" d="M 43.78125 133.45 
L 458.70625 133.45 
" style="fill:none;stroke:#b0b0b0;stroke-linecap:square;stroke-width:0.8;"/>
     </g>
     <g id="line2d_15">
      <g>
       <use style="stroke:#000000;stroke-width:0.8;" x="43.78125" xlink:href="#mb99c516a15" y="133.45"/>
      </g>
     </g>
     <g id="text_11">
      <!-- 0.6 -->
      <g transform="translate(20.878125 137.249219)scale(0.1 -0.1)">
       <defs>
        <path d="M 33.015625 40.375 
Q 26.375 40.375 22.484375 35.828125 
Q 18.609375 31.296875 18.609375 23.390625 
Q 18.609375 15.53125 22.484375 10.953125 
Q 26.375 6.390625 33.015625 6.390625 
Q 39.65625 6.390625 43.53125 10.953125 
Q 47.40625 15.53125 47.40625 23.390625 
Q 47.40625 31.296875 43.53125 35.828125 
Q 39.65625 40.375 33.015625 40.375 
z
M 52.59375 71.296875 
L 52.59375 62.3125 
Q 48.875 64.0625 45.09375 64.984375 
Q 41.3125 65.921875 37.59375 65.921875 
Q 27.828125 65.921875 22.671875 59.328125 
Q 17.53125 52.734375 16.796875 39.40625 
Q 19.671875 43.65625 24.015625 45.921875 
Q 28.375 48.1875 33.59375 48.1875 
Q 44.578125 48.1875 50.953125 41.515625 
Q 57.328125 34.859375 57.328125 23.390625 
Q 57.328125 12.15625 50.6875 5.359375 
Q 44.046875 -1.421875 33.015625 -1.421875 
Q 20.359375 -1.421875 13.671875 8.265625 
Q 6.984375 17.96875 6.984375 36.375 
Q 6.984375 53.65625 15.1875 63.9375 
Q 23.390625 74.21875 37.203125 74.21875 
Q 40.921875 74.21875 44.703125 73.484375 
Q 48.484375 72.75 52.59375 71.296875 
z
" id="DejaVuSans-54"/>
       </defs>
       <use xlink:href="#DejaVuSans-48"/>
       <use x="63.623047" xlink:href="#DejaVuSans-46"/>
       <use x="95.410156" xlink:href="#DejaVuSans-54"/>
      </g>
     </g>
    </g>
    <g id="ytick_5">
     <g id="line2d_16">
      <path clip-path="url(#p05c4535515)" d="M 43.78125 89.645 
L 458.70625 89.645 
" style="fill:none;stroke:#b0b0b0;stroke-linecap:square;stroke-width:0.8;"/>
     </g>
     <g id="line2d_17">
      <g>
       <use style="stroke:#000000;stroke-width:0.8;" x="43.78125" xlink:href="#mb99c516a15" y="89.645"/>
      </g>
     </g>
     <g id="text_12">
      <!-- 0.8 -->
      <g transform="translate(20.878125 93.444219)scale(0.1 -0.1)">
       <defs>
        <path d="M 31.78125 34.625 
Q 24.75 34.625 20.71875 30.859375 
Q 16.703125 27.09375 16.703125 20.515625 
Q 16.703125 13.921875 20.71875 10.15625 
Q 24.75 6.390625 31.78125 6.390625 
Q 38.8125 6.390625 42.859375 10.171875 
Q 46.921875 13.96875 46.921875 20.515625 
Q 46.921875 27.09375 42.890625 30.859375 
Q 38.875 34.625 31.78125 34.625 
z
M 21.921875 38.8125 
Q 15.578125 40.375 12.03125 44.71875 
Q 8.5 49.078125 8.5 55.328125 
Q 8.5 64.0625 14.71875 69.140625 
Q 20.953125 74.21875 31.78125 74.21875 
Q 42.671875 74.21875 48.875 69.140625 
Q 55.078125 64.0625 55.078125 55.328125 
Q 55.078125 49.078125 51.53125 44.71875 
Q 48 40.375 41.703125 38.8125 
Q 48.828125 37.15625 52.796875 32.3125 
Q 56.78125 27.484375 56.78125 20.515625 
Q 56.78125 9.90625 50.3125 4.234375 
Q 43.84375 -1.421875 31.78125 -1.421875 
Q 19.734375 -1.421875 13.25 4.234375 
Q 6.78125 9.90625 6.78125 20.515625 
Q 6.78125 27.484375 10.78125 32.3125 
Q 14.796875 37.15625 21.921875 38.8125 
z
M 18.3125 54.390625 
Q 18.3125 48.734375 21.84375 45.5625 
Q 25.390625 42.390625 31.78125 42.390625 
Q 38.140625 42.390625 41.71875 45.5625 
Q 45.3125 48.734375 45.3125 54.390625 
Q 45.3125 60.0625 41.71875 63.234375 
Q 38.140625 66.40625 31.78125 66.40625 
Q 25.390625 66.40625 21.84375 63.234375 
Q 18.3125 60.0625 18.3125 54.390625 
z
" id="DejaVuSans-56"/>
       </defs>
       <use xlink:href="#DejaVuSans-48"/>
       <use x="63.623047" xlink:href="#DejaVuSans-46"/>
       <use x="95.410156" xlink:href="#DejaVuSans-56"/>
      </g>
     </g>
    </g>
    <g id="ytick_6">
     <g id="line2d_18">
      <path clip-path="url(#p05c4535515)" d="M 43.78125 45.84 
L 458.70625 45.84 
" style="fill:none;stroke:#b0b0b0;stroke-linecap:square;stroke-width:0.8;"/>
     </g>
     <g id="line2d_19">
      <g>
       <use style="stroke:#000000;stroke-width:0.8;" x="43.78125" xlink:href="#mb99c516a15" y="45.84"/>
      </g>
     </g>
     <g id="text_13">
      <!-- 1.0 -->
      <g transform="translate(20.878125 49.639219)scale(0.1 -0.1)">
       <defs>
        <path d="M 12.40625 8.296875 
L 28.515625 8.296875 
L 28.515625 63.921875 
L 10.984375 60.40625 
L 10.984375 69.390625 
L 28.421875 72.90625 
L 38.28125 72.90625 
L 38.28125 8.296875 
L 54.390625 8.296875 
L 54.390625 0 
L 12.40625 0 
z
" id="DejaVuSans-49"/>
       </defs>
       <use xlink:href="#DejaVuSans-49"/>
       <use x="63.623047" xlink:href="#DejaVuSans-46"/>
       <use x="95.410156" xlink:href="#DejaVuSans-48"/>
      </g>
     </g>
    </g>
    <g id="text_14">
     <!-- proportion of qatal in section -->
     <g transform="translate(14.798438 227.788437)rotate(-90)scale(0.1 -0.1)">
      <defs>
       <path d="M 18.109375 8.203125 
L 18.109375 -20.796875 
L 9.078125 -20.796875 
L 9.078125 54.6875 
L 18.109375 54.6875 
L 18.109375 46.390625 
Q 20.953125 51.265625 25.265625 53.625 
Q 29.59375 56 35.59375 56 
Q 45.5625 56 51.78125 48.09375 
Q 58.015625 40.1875 58.015625 27.296875 
Q 58.015625 14.40625 51.78125 6.484375 
Q 45.5625 -1.421875 35.59375 -1.421875 
Q 29.59375 -1.421875 25.265625 0.953125 
Q 20.953125 3.328125 18.109375 8.203125 
z
M 48.6875 27.296875 
Q 48.6875 37.203125 44.609375 42.84375 
Q 40.53125 48.484375 33.40625 48.484375 
Q 26.265625 48.484375 22.1875 42.84375 
Q 18.109375 37.203125 18.109375 27.296875 
Q 18.109375 17.390625 22.1875 11.75 
Q 26.265625 6.109375 33.40625 6.109375 
Q 40.53125 6.109375 44.609375 11.75 
Q 48.6875 17.390625 48.6875 27.296875 
z
" id="DejaVuSans-112"/>
       <path d="M 41.109375 46.296875 
Q 39.59375 47.171875 37.8125 47.578125 
Q 36.03125 48 33.890625 48 
Q 26.265625 48 22.1875 43.046875 
Q 18.109375 38.09375 18.109375 28.8125 
L 18.109375 0 
L 9.078125 0 
L 9.078125 54.6875 
L 18.109375 54.6875 
L 18.109375 46.1875 
Q 20.953125 51.171875 25.484375 53.578125 
Q 30.03125 56 36.53125 56 
Q 37.453125 56 38.578125 55.875 
Q 39.703125 55.765625 41.0625 55.515625 
z
" id="DejaVuSans-114"/>
       <path d="M 30.609375 48.390625 
Q 23.390625 48.390625 19.1875 42.75 
Q 14.984375 37.109375 14.984375 27.296875 
Q 14.984375 17.484375 19.15625 11.84375 
Q 23.34375 6.203125 30.609375 6.203125 
Q 37.796875 6.203125 41.984375 11.859375 
Q 46.1875 17.53125 46.1875 27.296875 
Q 46.1875 37.015625 41.984375 42.703125 
Q 37.796875 48.390625 30.609375 48.390625 
z
M 30.609375 56 
Q 42.328125 56 49.015625 48.375 
Q 55.71875 40.765625 55.71875 27.296875 
Q 55.71875 13.875 49.015625 6.21875 
Q 42.328125 -1.421875 30.609375 -1.421875 
Q 18.84375 -1.421875 12.171875 6.21875 
Q 5.515625 13.875 5.515625 27.296875 
Q 5.515625 40.765625 12.171875 48.375 
Q 18.84375 56 30.609375 56 
z
" id="DejaVuSans-111"/>
       <path d="M 18.3125 70.21875 
L 18.3125 54.6875 
L 36.8125 54.6875 
L 36.8125 47.703125 
L 18.3125 47.703125 
L 18.3125 18.015625 
Q 18.3125 11.328125 20.140625 9.421875 
Q 21.96875 7.515625 27.59375 7.515625 
L 36.8125 7.515625 
L 36.8125 0 
L 27.59375 0 
Q 17.1875 0 13.234375 3.875 
Q 9.28125 7.765625 9.28125 18.015625 
L 9.28125 47.703125 
L 2.6875 47.703125 
L 2.6875 54.6875 
L 9.28125 54.6875 
L 9.28125 70.21875 
z
" id="DejaVuSans-116"/>
       <path d="M 9.421875 54.6875 
L 18.40625 54.6875 
L 18.40625 0 
L 9.421875 0 
z
M 9.421875 75.984375 
L 18.40625 75.984375 
L 18.40625 64.59375 
L 9.421875 64.59375 
z
" id="DejaVuSans-105"/>
       <path d="M 54.890625 33.015625 
L 54.890625 0 
L 45.90625 0 
L 45.90625 32.71875 
Q 45.90625 40.484375 42.875 44.328125 
Q 39.84375 48.1875 33.796875 48.1875 
Q 26.515625 48.1875 22.3125 43.546875 
Q 18.109375 38.921875 18.109375 30.90625 
L 18.109375 0 
L 9.078125 0 
L 9.078125 54.6875 
L 18.109375 54.6875 
L 18.109375 46.1875 
Q 21.34375 51.125 25.703125 53.5625 
Q 30.078125 56 35.796875 56 
Q 45.21875 56 50.046875 50.171875 
Q 54.890625 44.34375 54.890625 33.015625 
z
" id="DejaVuSans-110"/>
       <path d="M 37.109375 75.984375 
L 37.109375 68.5 
L 28.515625 68.5 
Q 23.6875 68.5 21.796875 66.546875 
Q 19.921875 64.59375 19.921875 59.515625 
L 19.921875 54.6875 
L 34.71875 54.6875 
L 34.71875 47.703125 
L 19.921875 47.703125 
L 19.921875 0 
L 10.890625 0 
L 10.890625 47.703125 
L 2.296875 47.703125 
L 2.296875 54.6875 
L 10.890625 54.6875 
L 10.890625 58.5 
Q 10.890625 67.625 15.140625 71.796875 
Q 19.390625 75.984375 28.609375 75.984375 
z
" id="DejaVuSans-102"/>
       <path d="M 14.796875 27.296875 
Q 14.796875 17.390625 18.875 11.75 
Q 22.953125 6.109375 30.078125 6.109375 
Q 37.203125 6.109375 41.296875 11.75 
Q 45.40625 17.390625 45.40625 27.296875 
Q 45.40625 37.203125 41.296875 42.84375 
Q 37.203125 48.484375 30.078125 48.484375 
Q 22.953125 48.484375 18.875 42.84375 
Q 14.796875 37.203125 14.796875 27.296875 
z
M 45.40625 8.203125 
Q 42.578125 3.328125 38.25 0.953125 
Q 33.9375 -1.421875 27.875 -1.421875 
Q 17.96875 -1.421875 11.734375 6.484375 
Q 5.515625 14.40625 5.515625 27.296875 
Q 5.515625 40.1875 11.734375 48.09375 
Q 17.96875 56 27.875 56 
Q 33.9375 56 38.25 53.625 
Q 42.578125 51.265625 45.40625 46.390625 
L 45.40625 54.6875 
L 54.390625 54.6875 
L 54.390625 -20.796875 
L 45.40625 -20.796875 
z
" id="DejaVuSans-113"/>
       <path d="M 34.28125 27.484375 
Q 23.390625 27.484375 19.1875 25 
Q 14.984375 22.515625 14.984375 16.5 
Q 14.984375 11.71875 18.140625 8.90625 
Q 21.296875 6.109375 26.703125 6.109375 
Q 34.1875 6.109375 38.703125 11.40625 
Q 43.21875 16.703125 43.21875 25.484375 
L 43.21875 27.484375 
z
M 52.203125 31.203125 
L 52.203125 0 
L 43.21875 0 
L 43.21875 8.296875 
Q 40.140625 3.328125 35.546875 0.953125 
Q 30.953125 -1.421875 24.3125 -1.421875 
Q 15.921875 -1.421875 10.953125 3.296875 
Q 6 8.015625 6 15.921875 
Q 6 25.140625 12.171875 29.828125 
Q 18.359375 34.515625 30.609375 34.515625 
L 43.21875 34.515625 
L 43.21875 35.40625 
Q 43.21875 41.609375 39.140625 45 
Q 35.0625 48.390625 27.6875 48.390625 
Q 23 48.390625 18.546875 47.265625 
Q 14.109375 46.140625 10.015625 43.890625 
L 10.015625 52.203125 
Q 14.9375 54.109375 19.578125 55.046875 
Q 24.21875 56 28.609375 56 
Q 40.484375 56 46.34375 49.84375 
Q 52.203125 43.703125 52.203125 31.203125 
z
" id="DejaVuSans-97"/>
       <path d="M 9.421875 75.984375 
L 18.40625 75.984375 
L 18.40625 0 
L 9.421875 0 
z
" id="DejaVuSans-108"/>
       <path d="M 44.28125 53.078125 
L 44.28125 44.578125 
Q 40.484375 46.53125 36.375 47.5 
Q 32.28125 48.484375 27.875 48.484375 
Q 21.1875 48.484375 17.84375 46.4375 
Q 14.5 44.390625 14.5 40.28125 
Q 14.5 37.15625 16.890625 35.375 
Q 19.28125 33.59375 26.515625 31.984375 
L 29.59375 31.296875 
Q 39.15625 29.25 43.1875 25.515625 
Q 47.21875 21.78125 47.21875 15.09375 
Q 47.21875 7.46875 41.1875 3.015625 
Q 35.15625 -1.421875 24.609375 -1.421875 
Q 20.21875 -1.421875 15.453125 -0.5625 
Q 10.6875 0.296875 5.421875 2 
L 5.421875 11.28125 
Q 10.40625 8.6875 15.234375 7.390625 
Q 20.0625 6.109375 24.8125 6.109375 
Q 31.15625 6.109375 34.5625 8.28125 
Q 37.984375 10.453125 37.984375 14.40625 
Q 37.984375 18.0625 35.515625 20.015625 
Q 33.0625 21.96875 24.703125 23.78125 
L 21.578125 24.515625 
Q 13.234375 26.265625 9.515625 29.90625 
Q 5.8125 33.546875 5.8125 39.890625 
Q 5.8125 47.609375 11.28125 51.796875 
Q 16.75 56 26.8125 56 
Q 31.78125 56 36.171875 55.265625 
Q 40.578125 54.546875 44.28125 53.078125 
z
" id="DejaVuSans-115"/>
       <path d="M 56.203125 29.59375 
L 56.203125 25.203125 
L 14.890625 25.203125 
Q 15.484375 15.921875 20.484375 11.0625 
Q 25.484375 6.203125 34.421875 6.203125 
Q 39.59375 6.203125 44.453125 7.46875 
Q 49.3125 8.734375 54.109375 11.28125 
L 54.109375 2.78125 
Q 49.265625 0.734375 44.1875 -0.34375 
Q 39.109375 -1.421875 33.890625 -1.421875 
Q 20.796875 -1.421875 13.15625 6.1875 
Q 5.515625 13.8125 5.515625 26.8125 
Q 5.515625 40.234375 12.765625 48.109375 
Q 20.015625 56 32.328125 56 
Q 43.359375 56 49.78125 48.890625 
Q 56.203125 41.796875 56.203125 29.59375 
z
M 47.21875 32.234375 
Q 47.125 39.59375 43.09375 43.984375 
Q 39.0625 48.390625 32.421875 48.390625 
Q 24.90625 48.390625 20.390625 44.140625 
Q 15.875 39.890625 15.1875 32.171875 
z
" id="DejaVuSans-101"/>
       <path d="M 48.78125 52.59375 
L 48.78125 44.1875 
Q 44.96875 46.296875 41.140625 47.34375 
Q 37.3125 48.390625 33.40625 48.390625 
Q 24.65625 48.390625 19.8125 42.84375 
Q 14.984375 37.3125 14.984375 27.296875 
Q 14.984375 17.28125 19.8125 11.734375 
Q 24.65625 6.203125 33.40625 6.203125 
Q 37.3125 6.203125 41.140625 7.25 
Q 44.96875 8.296875 48.78125 10.40625 
L 48.78125 2.09375 
Q 45.015625 0.34375 40.984375 -0.53125 
Q 36.96875 -1.421875 32.421875 -1.421875 
Q 20.0625 -1.421875 12.78125 6.34375 
Q 5.515625 14.109375 5.515625 27.296875 
Q 5.515625 40.671875 12.859375 48.328125 
Q 20.21875 56 33.015625 56 
Q 37.15625 56 41.109375 55.140625 
Q 45.0625 54.296875 48.78125 52.59375 
z
" id="DejaVuSans-99"/>
      </defs>
      <use xlink:href="#DejaVuSans-112"/>
      <use x="63.476562" xlink:href="#DejaVuSans-114"/>
      <use x="102.339844" xlink:href="#DejaVuSans-111"/>
      <use x="163.521484" xlink:href="#DejaVuSans-112"/>
      <use x="226.998047" xlink:href="#DejaVuSans-111"/>
      <use x="288.179688" xlink:href="#DejaVuSans-114"/>
      <use x="329.292969" xlink:href="#DejaVuSans-116"/>
      <use x="368.501953" xlink:href="#DejaVuSans-105"/>
      <use x="396.285156" xlink:href="#DejaVuSans-111"/>
      <use x="457.466797" xlink:href="#DejaVuSans-110"/>
      <use x="520.845703" xlink:href="#DejaVuSans-32"/>
      <use x="552.632812" xlink:href="#DejaVuSans-111"/>
      <use x="613.814453" xlink:href="#DejaVuSans-102"/>
      <use x="649.019531" xlink:href="#DejaVuSans-32"/>
      <use x="680.806641" xlink:href="#DejaVuSans-113"/>
      <use x="744.283203" xlink:href="#DejaVuSans-97"/>
      <use x="805.5625" xlink:href="#DejaVuSans-116"/>
      <use x="844.771484" xlink:href="#DejaVuSans-97"/>
      <use x="906.050781" xlink:href="#DejaVuSans-108"/>
      <use x="933.833984" xlink:href="#DejaVuSans-32"/>
      <use x="965.621094" xlink:href="#DejaVuSans-105"/>
      <use x="993.404297" xlink:href="#DejaVuSans-110"/>
      <use x="1056.783203" xlink:href="#DejaVuSans-32"/>
      <use x="1088.570312" xlink:href="#DejaVuSans-115"/>
      <use x="1140.669922" xlink:href="#DejaVuSans-101"/>
      <use x="1202.193359" xlink:href="#DejaVuSans-99"/>
      <use x="1257.173828" xlink:href="#DejaVuSans-116"/>
      <use x="1296.382812" xlink:href="#DejaVuSans-105"/>
      <use x="1324.166016" xlink:href="#DejaVuSans-111"/>
      <use x="1385.347656" xlink:href="#DejaVuSans-110"/>
     </g>
    </g>
   </g>
   <g id="patch_3">
    <path clip-path="url(#p05c4535515)" d="M 58.6 264.865 
L 88.2375 264.865 
L 88.2375 253.341159 
L 58.6 253.341159 
z
" style="fill:#d3d3d3;stroke:#000000;stroke-linejoin:miter;"/>
   </g>
   <g id="patch_4">
    <path clip-path="url(#p05c4535515)" d="M 117.875 264.865 
L 147.5125 264.865 
L 147.5125 263.136424 
L 117.875 263.136424 
z
" style="fill:#d3d3d3;stroke:#000000;stroke-linejoin:miter;"/>
   </g>
   <g id="patch_5">
    <path clip-path="url(#p05c4535515)" d="M 177.15 264.865 
L 206.7875 264.865 
L 206.7875 238.648262 
L 177.15 238.648262 
z
" style="fill:#d3d3d3;stroke:#000000;stroke-linejoin:miter;"/>
   </g>
   <g id="patch_6">
    <path clip-path="url(#p05c4535515)" d="M 236.425 264.865 
L 266.0625 264.865 
L 266.0625 167.200449 
L 236.425 167.200449 
z
" style="fill:#d3d3d3;stroke:#000000;stroke-linejoin:miter;"/>
   </g>
   <g id="patch_7">
    <path clip-path="url(#p05c4535515)" d="M 295.7 264.865 
L 325.3375 264.865 
L 325.3375 211.783308 
L 295.7 211.783308 
z
" style="fill:#d3d3d3;stroke:#000000;stroke-linejoin:miter;"/>
   </g>
   <g id="patch_8">
    <path clip-path="url(#p05c4535515)" d="M 354.975 264.865 
L 384.6125 264.865 
L 384.6125 264.720952 
L 354.975 264.720952 
z
" style="fill:#d3d3d3;stroke:#000000;stroke-linejoin:miter;"/>
   </g>
   <g id="patch_9">
    <path clip-path="url(#p05c4535515)" d="M 414.25 264.865 
L 443.8875 264.865 
L 443.8875 236.199446 
L 414.25 236.199446 
z
" style="fill:#d3d3d3;stroke:#000000;stroke-linejoin:miter;"/>
   </g>
   <g id="LineCollection_1">
    <path clip-path="url(#p05c4535515)" d="M 73.41875 265.754793 
L 73.41875 240.927525 
" style="fill:none;stroke:#808080;"/>
    <path clip-path="url(#p05c4535515)" d="M 132.69375 264.666465 
L 132.69375 261.606383 
" style="fill:none;stroke:#808080;"/>
    <path clip-path="url(#p05c4535515)" d="M 191.96875 266.865378 
L 191.96875 210.431146 
" style="fill:none;stroke:#808080;"/>
    <path clip-path="url(#p05c4535515)" d="M 251.24375 207.201952 
L 251.24375 127.198945 
" style="fill:none;stroke:#808080;"/>
    <path clip-path="url(#p05c4535515)" d="M 310.51875 230.737245 
L 310.51875 192.829371 
" style="fill:none;stroke:#808080;"/>
    <path clip-path="url(#p05c4535515)" d="M 369.79375 264.99922 
L 369.79375 264.442684 
" style="fill:none;stroke:#808080;"/>
    <path clip-path="url(#p05c4535515)" d="M 429.06875 254.848527 
L 429.06875 217.550365 
" style="fill:none;stroke:#808080;"/>
   </g>
   <g id="line2d_20">
    <defs>
     <path d="M 3 0 
L -3 -0 
" id="m5c8c25d1e7" style="stroke:#808080;"/>
    </defs>
    <g clip-path="url(#p05c4535515)">
     <use style="fill:#808080;stroke:#808080;" x="73.41875" xlink:href="#m5c8c25d1e7" y="265.754793"/>
     <use style="fill:#808080;stroke:#808080;" x="132.69375" xlink:href="#m5c8c25d1e7" y="264.666465"/>
     <use style="fill:#808080;stroke:#808080;" x="191.96875" xlink:href="#m5c8c25d1e7" y="266.865378"/>
     <use style="fill:#808080;stroke:#808080;" x="251.24375" xlink:href="#m5c8c25d1e7" y="207.201952"/>
     <use style="fill:#808080;stroke:#808080;" x="310.51875" xlink:href="#m5c8c25d1e7" y="230.737245"/>
     <use style="fill:#808080;stroke:#808080;" x="369.79375" xlink:href="#m5c8c25d1e7" y="264.99922"/>
     <use style="fill:#808080;stroke:#808080;" x="429.06875" xlink:href="#m5c8c25d1e7" y="254.848527"/>
    </g>
   </g>
   <g id="line2d_21">
    <g clip-path="url(#p05c4535515)">
     <use style="fill:#808080;stroke:#808080;" x="73.41875" xlink:href="#m5c8c25d1e7" y="240.927525"/>
     <use style="fill:#808080;stroke:#808080;" x="132.69375" xlink:href="#m5c8c25d1e7" y="261.606383"/>
     <use style="fill:#808080;stroke:#808080;" x="191.96875" xlink:href="#m5c8c25d1e7" y="210.431146"/>
     <use style="fill:#808080;stroke:#808080;" x="251.24375" xlink:href="#m5c8c25d1e7" y="127.198945"/>
     <use style="fill:#808080;stroke:#808080;" x="310.51875" xlink:href="#m5c8c25d1e7" y="192.829371"/>
     <use style="fill:#808080;stroke:#808080;" x="369.79375" xlink:href="#m5c8c25d1e7" y="264.442684"/>
     <use style="fill:#808080;stroke:#808080;" x="429.06875" xlink:href="#m5c8c25d1e7" y="217.550365"/>
    </g>
   </g>
   <g id="patch_10">
    <path d="M 43.78125 264.865 
L 43.78125 45.84 
" style="fill:none;stroke:#000000;stroke-linecap:square;stroke-linejoin:miter;stroke-width:0.8;"/>
   </g>
   <g id="patch_11">
    <path d="M 458.70625 264.865 
L 458.70625 45.84 
" style="fill:none;stroke:#000000;stroke-linecap:square;stroke-linejoin:miter;stroke-width:0.8;"/>
   </g>
   <g id="patch_12">
    <path d="M 43.78125 264.865 
L 458.70625 264.865 
" style="fill:none;stroke:#000000;stroke-linecap:square;stroke-linejoin:miter;stroke-width:0.8;"/>
   </g>
   <g id="patch_13">
    <path d="M 43.78125 45.84 
L 458.70625 45.84 
" style="fill:none;stroke:#000000;stroke-linecap:square;stroke-linejoin:miter;stroke-width:0.8;"/>
   </g>
   <g id="text_15">
    <!-- EBH, ve-qatal, N=3041 -->
    <g transform="translate(181.82 39.84)scale(0.12 -0.12)">
     <defs>
      <path d="M 19.671875 34.8125 
L 19.671875 8.109375 
L 35.5 8.109375 
Q 43.453125 8.109375 47.28125 11.40625 
Q 51.125 14.703125 51.125 21.484375 
Q 51.125 28.328125 47.28125 31.5625 
Q 43.453125 34.8125 35.5 34.8125 
z
M 19.671875 64.796875 
L 19.671875 42.828125 
L 34.28125 42.828125 
Q 41.5 42.828125 45.03125 45.53125 
Q 48.578125 48.25 48.578125 53.8125 
Q 48.578125 59.328125 45.03125 62.0625 
Q 41.5 64.796875 34.28125 64.796875 
z
M 9.8125 72.90625 
L 35.015625 72.90625 
Q 46.296875 72.90625 52.390625 68.21875 
Q 58.5 63.53125 58.5 54.890625 
Q 58.5 48.1875 55.375 44.234375 
Q 52.25 40.28125 46.1875 39.3125 
Q 53.46875 37.75 57.5 32.78125 
Q 61.53125 27.828125 61.53125 20.40625 
Q 61.53125 10.640625 54.890625 5.3125 
Q 48.25 0 35.984375 0 
L 9.8125 0 
z
" id="DejaVuSans-66"/>
      <path d="M 9.8125 72.90625 
L 19.671875 72.90625 
L 19.671875 43.015625 
L 55.515625 43.015625 
L 55.515625 72.90625 
L 65.375 72.90625 
L 65.375 0 
L 55.515625 0 
L 55.515625 34.71875 
L 19.671875 34.71875 
L 19.671875 0 
L 9.8125 0 
z
" id="DejaVuSans-72"/>
      <path d="M 11.71875 12.40625 
L 22.015625 12.40625 
L 22.015625 4 
L 14.015625 -11.625 
L 7.71875 -11.625 
L 11.71875 4 
z
" id="DejaVuSans-44"/>
      <path d="M 2.984375 54.6875 
L 12.5 54.6875 
L 29.59375 8.796875 
L 46.6875 54.6875 
L 56.203125 54.6875 
L 35.6875 0 
L 23.484375 0 
z
" id="DejaVuSans-118"/>
      <path d="M 4.890625 31.390625 
L 31.203125 31.390625 
L 31.203125 23.390625 
L 4.890625 23.390625 
z
" id="DejaVuSans-45"/>
      <path d="M 9.8125 72.90625 
L 23.09375 72.90625 
L 55.421875 11.921875 
L 55.421875 72.90625 
L 64.984375 72.90625 
L 64.984375 0 
L 51.703125 0 
L 19.390625 60.984375 
L 19.390625 0 
L 9.8125 0 
z
" id="DejaVuSans-78"/>
      <path d="M 10.59375 45.40625 
L 73.1875 45.40625 
L 73.1875 37.203125 
L 10.59375 37.203125 
z
M 10.59375 25.484375 
L 73.1875 25.484375 
L 73.1875 17.1875 
L 10.59375 17.1875 
z
" id="DejaVuSans-61"/>
      <path d="M 40.578125 39.3125 
Q 47.65625 37.796875 51.625 33 
Q 55.609375 28.21875 55.609375 21.1875 
Q 55.609375 10.40625 48.1875 4.484375 
Q 40.765625 -1.421875 27.09375 -1.421875 
Q 22.515625 -1.421875 17.65625 -0.515625 
Q 12.796875 0.390625 7.625 2.203125 
L 7.625 11.71875 
Q 11.71875 9.328125 16.59375 8.109375 
Q 21.484375 6.890625 26.8125 6.890625 
Q 36.078125 6.890625 40.9375 10.546875 
Q 45.796875 14.203125 45.796875 21.1875 
Q 45.796875 27.640625 41.28125 31.265625 
Q 36.765625 34.90625 28.71875 34.90625 
L 20.21875 34.90625 
L 20.21875 43.015625 
L 29.109375 43.015625 
Q 36.375 43.015625 40.234375 45.921875 
Q 44.09375 48.828125 44.09375 54.296875 
Q 44.09375 59.90625 40.109375 62.90625 
Q 36.140625 65.921875 28.71875 65.921875 
Q 24.65625 65.921875 20.015625 65.03125 
Q 15.375 64.15625 9.8125 62.3125 
L 9.8125 71.09375 
Q 15.4375 72.65625 20.34375 73.4375 
Q 25.25 74.21875 29.59375 74.21875 
Q 40.828125 74.21875 47.359375 69.109375 
Q 53.90625 64.015625 53.90625 55.328125 
Q 53.90625 49.265625 50.4375 45.09375 
Q 46.96875 40.921875 40.578125 39.3125 
z
" id="DejaVuSans-51"/>
     </defs>
     <use xlink:href="#DejaVuSans-69"/>
     <use x="63.183594" xlink:href="#DejaVuSans-66"/>
     <use x="131.787109" xlink:href="#DejaVuSans-72"/>
     <use x="206.982422" xlink:href="#DejaVuSans-44"/>
     <use x="238.769531" xlink:href="#DejaVuSans-32"/>
     <use x="270.556641" xlink:href="#DejaVuSans-118"/>
     <use x="329.736328" xlink:href="#DejaVuSans-101"/>
     <use x="391.259766" xlink:href="#DejaVuSans-45"/>
     <use x="427.34375" xlink:href="#DejaVuSans-113"/>
     <use x="490.820312" xlink:href="#DejaVuSans-97"/>
     <use x="552.099609" xlink:href="#DejaVuSans-116"/>
     <use x="591.308594" xlink:href="#DejaVuSans-97"/>
     <use x="652.587891" xlink:href="#DejaVuSans-108"/>
     <use x="680.371094" xlink:href="#DejaVuSans-44"/>
     <use x="712.158203" xlink:href="#DejaVuSans-32"/>
     <use x="743.945312" xlink:href="#DejaVuSans-78"/>
     <use x="818.75" xlink:href="#DejaVuSans-61"/>
     <use x="902.539062" xlink:href="#DejaVuSans-51"/>
     <use x="966.162109" xlink:href="#DejaVuSans-48"/>
     <use x="1029.785156" xlink:href="#DejaVuSans-52"/>
     <use x="1093.408203" xlink:href="#DejaVuSans-49"/>
    </g>
   </g>
  </g>
  <g id="axes_2">
   <g id="patch_14">
    <path d="M 506.38125 264.865 
L 921.30625 264.865 
L 921.30625 45.84 
L 506.38125 45.84 
z
" style="fill:#ffffff;"/>
   </g>
   <g id="matplotlib.axis_3">
    <g id="xtick_8">
     <g id="line2d_22">
      <g>
       <use style="stroke:#000000;stroke-width:0.8;" x="536.01875" xlink:href="#m53c91fd257" y="264.865"/>
      </g>
     </g>
     <g id="text_16">
      <!-- PAST -->
      <g transform="translate(538.778125 296.554062)rotate(-90)scale(0.1 -0.1)">
       <use xlink:href="#DejaVuSans-80"/>
       <use x="53.927734" xlink:href="#DejaVuSans-65"/>
       <use x="122.335938" xlink:href="#DejaVuSans-83"/>
       <use x="185.8125" xlink:href="#DejaVuSans-84"/>
      </g>
     </g>
    </g>
    <g id="xtick_9">
     <g id="line2d_23">
      <g>
       <use style="stroke:#000000;stroke-width:0.8;" x="595.29375" xlink:href="#m53c91fd257" y="264.865"/>
      </g>
     </g>
     <g id="text_17">
      <!-- PRES PERF -->
      <g transform="translate(598.053125 325.736875)rotate(-90)scale(0.1 -0.1)">
       <use xlink:href="#DejaVuSans-80"/>
       <use x="60.302734" xlink:href="#DejaVuSans-82"/>
       <use x="129.785156" xlink:href="#DejaVuSans-69"/>
       <use x="192.96875" xlink:href="#DejaVuSans-83"/>
       <use x="256.445312" xlink:href="#DejaVuSans-32"/>
       <use x="288.232422" xlink:href="#DejaVuSans-80"/>
       <use x="348.535156" xlink:href="#DejaVuSans-69"/>
       <use x="411.71875" xlink:href="#DejaVuSans-82"/>
       <use x="481.201172" xlink:href="#DejaVuSans-70"/>
      </g>
     </g>
    </g>
    <g id="xtick_10">
     <g id="line2d_24">
      <g>
       <use style="stroke:#000000;stroke-width:0.8;" x="654.56875" xlink:href="#m53c91fd257" y="264.865"/>
      </g>
     </g>
     <g id="text_18">
      <!-- PRES -->
      <g transform="translate(657.328125 297.510312)rotate(-90)scale(0.1 -0.1)">
       <use xlink:href="#DejaVuSans-80"/>
       <use x="60.302734" xlink:href="#DejaVuSans-82"/>
       <use x="129.785156" xlink:href="#DejaVuSans-69"/>
       <use x="192.96875" xlink:href="#DejaVuSans-83"/>
      </g>
     </g>
    </g>
    <g id="xtick_11">
     <g id="line2d_25">
      <g>
       <use style="stroke:#000000;stroke-width:0.8;" x="713.84375" xlink:href="#m53c91fd257" y="264.865"/>
      </g>
     </g>
     <g id="text_19">
      <!-- MOD -->
      <g transform="translate(716.603125 296.065)rotate(-90)scale(0.1 -0.1)">
       <use xlink:href="#DejaVuSans-77"/>
       <use x="86.279297" xlink:href="#DejaVuSans-79"/>
       <use x="164.990234" xlink:href="#DejaVuSans-68"/>
      </g>
     </g>
    </g>
    <g id="xtick_12">
     <g id="line2d_26">
      <g>
       <use style="stroke:#000000;stroke-width:0.8;" x="773.11875" xlink:href="#m53c91fd257" y="264.865"/>
      </g>
     </g>
     <g id="text_20">
      <!-- IMPV -->
      <g transform="translate(775.878125 296.313437)rotate(-90)scale(0.1 -0.1)">
       <use xlink:href="#DejaVuSans-73"/>
       <use x="29.492188" xlink:href="#DejaVuSans-77"/>
       <use x="115.771484" xlink:href="#DejaVuSans-80"/>
       <use x="176.074219" xlink:href="#DejaVuSans-86"/>
      </g>
     </g>
    </g>
    <g id="xtick_13">
     <g id="line2d_27">
      <g>
       <use style="stroke:#000000;stroke-width:0.8;" x="832.39375" xlink:href="#m53c91fd257" y="264.865"/>
      </g>
     </g>
     <g id="text_21">
      <!-- PAST PERF -->
      <g transform="translate(835.153125 324.780625)rotate(-90)scale(0.1 -0.1)">
       <use xlink:href="#DejaVuSans-80"/>
       <use x="53.927734" xlink:href="#DejaVuSans-65"/>
       <use x="122.335938" xlink:href="#DejaVuSans-83"/>
       <use x="185.8125" xlink:href="#DejaVuSans-84"/>
       <use x="246.896484" xlink:href="#DejaVuSans-32"/>
       <use x="278.683594" xlink:href="#DejaVuSans-80"/>
       <use x="338.986328" xlink:href="#DejaVuSans-69"/>
       <use x="402.169922" xlink:href="#DejaVuSans-82"/>
       <use x="471.652344" xlink:href="#DejaVuSans-70"/>
      </g>
     </g>
    </g>
    <g id="xtick_14">
     <g id="line2d_28">
      <g>
       <use style="stroke:#000000;stroke-width:0.8;" x="891.66875" xlink:href="#m53c91fd257" y="264.865"/>
      </g>
     </g>
     <g id="text_22">
      <!-- FUT -->
      <g transform="translate(894.428125 291.043125)rotate(-90)scale(0.1 -0.1)">
       <use xlink:href="#DejaVuSans-70"/>
       <use x="57.519531" xlink:href="#DejaVuSans-85"/>
       <use x="130.712891" xlink:href="#DejaVuSans-84"/>
      </g>
     </g>
    </g>
   </g>
   <g id="matplotlib.axis_4">
    <g id="ytick_7">
     <g id="line2d_29">
      <path clip-path="url(#p56764ffb2b)" d="M 506.38125 264.865 
L 921.30625 264.865 
" style="fill:none;stroke:#b0b0b0;stroke-linecap:square;stroke-width:0.8;"/>
     </g>
     <g id="line2d_30">
      <g>
       <use style="stroke:#000000;stroke-width:0.8;" x="506.38125" xlink:href="#mb99c516a15" y="264.865"/>
      </g>
     </g>
     <g id="text_23">
      <!-- 0.0 -->
      <g transform="translate(483.478125 268.664219)scale(0.1 -0.1)">
       <use xlink:href="#DejaVuSans-48"/>
       <use x="63.623047" xlink:href="#DejaVuSans-46"/>
       <use x="95.410156" xlink:href="#DejaVuSans-48"/>
      </g>
     </g>
    </g>
    <g id="ytick_8">
     <g id="line2d_31">
      <path clip-path="url(#p56764ffb2b)" d="M 506.38125 221.06 
L 921.30625 221.06 
" style="fill:none;stroke:#b0b0b0;stroke-linecap:square;stroke-width:0.8;"/>
     </g>
     <g id="line2d_32">
      <g>
       <use style="stroke:#000000;stroke-width:0.8;" x="506.38125" xlink:href="#mb99c516a15" y="221.06"/>
      </g>
     </g>
     <g id="text_24">
      <!-- 0.2 -->
      <g transform="translate(483.478125 224.859219)scale(0.1 -0.1)">
       <use xlink:href="#DejaVuSans-48"/>
       <use x="63.623047" xlink:href="#DejaVuSans-46"/>
       <use x="95.410156" xlink:href="#DejaVuSans-50"/>
      </g>
     </g>
    </g>
    <g id="ytick_9">
     <g id="line2d_33">
      <path clip-path="url(#p56764ffb2b)" d="M 506.38125 177.255 
L 921.30625 177.255 
" style="fill:none;stroke:#b0b0b0;stroke-linecap:square;stroke-width:0.8;"/>
     </g>
     <g id="line2d_34">
      <g>
       <use style="stroke:#000000;stroke-width:0.8;" x="506.38125" xlink:href="#mb99c516a15" y="177.255"/>
      </g>
     </g>
     <g id="text_25">
      <!-- 0.4 -->
      <g transform="translate(483.478125 181.054219)scale(0.1 -0.1)">
       <use xlink:href="#DejaVuSans-48"/>
       <use x="63.623047" xlink:href="#DejaVuSans-46"/>
       <use x="95.410156" xlink:href="#DejaVuSans-52"/>
      </g>
     </g>
    </g>
    <g id="ytick_10">
     <g id="line2d_35">
      <path clip-path="url(#p56764ffb2b)" d="M 506.38125 133.45 
L 921.30625 133.45 
" style="fill:none;stroke:#b0b0b0;stroke-linecap:square;stroke-width:0.8;"/>
     </g>
     <g id="line2d_36">
      <g>
       <use style="stroke:#000000;stroke-width:0.8;" x="506.38125" xlink:href="#mb99c516a15" y="133.45"/>
      </g>
     </g>
     <g id="text_26">
      <!-- 0.6 -->
      <g transform="translate(483.478125 137.249219)scale(0.1 -0.1)">
       <use xlink:href="#DejaVuSans-48"/>
       <use x="63.623047" xlink:href="#DejaVuSans-46"/>
       <use x="95.410156" xlink:href="#DejaVuSans-54"/>
      </g>
     </g>
    </g>
    <g id="ytick_11">
     <g id="line2d_37">
      <path clip-path="url(#p56764ffb2b)" d="M 506.38125 89.645 
L 921.30625 89.645 
" style="fill:none;stroke:#b0b0b0;stroke-linecap:square;stroke-width:0.8;"/>
     </g>
     <g id="line2d_38">
      <g>
       <use style="stroke:#000000;stroke-width:0.8;" x="506.38125" xlink:href="#mb99c516a15" y="89.645"/>
      </g>
     </g>
     <g id="text_27">
      <!-- 0.8 -->
      <g transform="translate(483.478125 93.444219)scale(0.1 -0.1)">
       <use xlink:href="#DejaVuSans-48"/>
       <use x="63.623047" xlink:href="#DejaVuSans-46"/>
       <use x="95.410156" xlink:href="#DejaVuSans-56"/>
      </g>
     </g>
    </g>
    <g id="ytick_12">
     <g id="line2d_39">
      <path clip-path="url(#p56764ffb2b)" d="M 506.38125 45.84 
L 921.30625 45.84 
" style="fill:none;stroke:#b0b0b0;stroke-linecap:square;stroke-width:0.8;"/>
     </g>
     <g id="line2d_40">
      <g>
       <use style="stroke:#000000;stroke-width:0.8;" x="506.38125" xlink:href="#mb99c516a15" y="45.84"/>
      </g>
     </g>
     <g id="text_28">
      <!-- 1.0 -->
      <g transform="translate(483.478125 49.639219)scale(0.1 -0.1)">
       <use xlink:href="#DejaVuSans-49"/>
       <use x="63.623047" xlink:href="#DejaVuSans-46"/>
       <use x="95.410156" xlink:href="#DejaVuSans-48"/>
      </g>
     </g>
    </g>
    <g id="text_29">
     <!-- proportion of qatal in section -->
     <g transform="translate(477.398437 227.788437)rotate(-90)scale(0.1 -0.1)">
      <use xlink:href="#DejaVuSans-112"/>
      <use x="63.476562" xlink:href="#DejaVuSans-114"/>
      <use x="102.339844" xlink:href="#DejaVuSans-111"/>
      <use x="163.521484" xlink:href="#DejaVuSans-112"/>
      <use x="226.998047" xlink:href="#DejaVuSans-111"/>
      <use x="288.179688" xlink:href="#DejaVuSans-114"/>
      <use x="329.292969" xlink:href="#DejaVuSans-116"/>
      <use x="368.501953" xlink:href="#DejaVuSans-105"/>
      <use x="396.285156" xlink:href="#DejaVuSans-111"/>
      <use x="457.466797" xlink:href="#DejaVuSans-110"/>
      <use x="520.845703" xlink:href="#DejaVuSans-32"/>
      <use x="552.632812" xlink:href="#DejaVuSans-111"/>
      <use x="613.814453" xlink:href="#DejaVuSans-102"/>
      <use x="649.019531" xlink:href="#DejaVuSans-32"/>
      <use x="680.806641" xlink:href="#DejaVuSans-113"/>
      <use x="744.283203" xlink:href="#DejaVuSans-97"/>
      <use x="805.5625" xlink:href="#DejaVuSans-116"/>
      <use x="844.771484" xlink:href="#DejaVuSans-97"/>
      <use x="906.050781" xlink:href="#DejaVuSans-108"/>
      <use x="933.833984" xlink:href="#DejaVuSans-32"/>
      <use x="965.621094" xlink:href="#DejaVuSans-105"/>
      <use x="993.404297" xlink:href="#DejaVuSans-110"/>
      <use x="1056.783203" xlink:href="#DejaVuSans-32"/>
      <use x="1088.570312" xlink:href="#DejaVuSans-115"/>
      <use x="1140.669922" xlink:href="#DejaVuSans-101"/>
      <use x="1202.193359" xlink:href="#DejaVuSans-99"/>
      <use x="1257.173828" xlink:href="#DejaVuSans-116"/>
      <use x="1296.382812" xlink:href="#DejaVuSans-105"/>
      <use x="1324.166016" xlink:href="#DejaVuSans-111"/>
      <use x="1385.347656" xlink:href="#DejaVuSans-110"/>
     </g>
    </g>
   </g>
   <g id="patch_15">
    <path clip-path="url(#p56764ffb2b)" d="M 521.2 264.865 
L 550.8375 264.865 
L 550.8375 228.834913 
L 521.2 228.834913 
z
" style="fill:#d3d3d3;stroke:#000000;stroke-linejoin:miter;"/>
   </g>
   <g id="patch_16">
    <path clip-path="url(#p56764ffb2b)" d="M 580.475 264.865 
L 610.1125 264.865 
L 610.1125 256.331558 
L 580.475 256.331558 
z
" style="fill:#d3d3d3;stroke:#000000;stroke-linejoin:miter;"/>
   </g>
   <g id="patch_17">
    <path clip-path="url(#p56764ffb2b)" d="M 639.75 264.865 
L 669.3875 264.865 
L 669.3875 240.212835 
L 639.75 240.212835 
z
" style="fill:#d3d3d3;stroke:#000000;stroke-linejoin:miter;"/>
   </g>
   <g id="patch_18">
    <path clip-path="url(#p56764ffb2b)" d="M 699.025 264.865 
L 728.6625 264.865 
L 728.6625 200.390108 
L 699.025 200.390108 
z
" style="fill:#d3d3d3;stroke:#000000;stroke-linejoin:miter;"/>
   </g>
   <g id="patch_19">
    <path clip-path="url(#p56764ffb2b)" d="M 758.3 264.865 
L 787.9375 264.865 
L 787.9375 205.130909 
L 758.3 205.130909 
z
" style="fill:#d3d3d3;stroke:#000000;stroke-linejoin:miter;"/>
   </g>
   <g id="patch_20">
    <path clip-path="url(#p56764ffb2b)" d="M 817.575 264.865 
L 847.2125 264.865 
L 847.2125 262.96868 
L 817.575 262.96868 
z
" style="fill:#d3d3d3;stroke:#000000;stroke-linejoin:miter;"/>
   </g>
   <g id="patch_21">
    <path clip-path="url(#p56764ffb2b)" d="M 876.85 264.865 
L 906.4875 264.865 
L 906.4875 241.160996 
L 876.85 241.160996 
z
" style="fill:#d3d3d3;stroke:#000000;stroke-linejoin:miter;"/>
   </g>
   <g id="LineCollection_2">
    <path clip-path="url(#p56764ffb2b)" d="M 536.01875 254.529001 
L 536.01875 203.140826 
" style="fill:none;stroke:#808080;"/>
    <path clip-path="url(#p56764ffb2b)" d="M 595.29375 264.01441 
L 595.29375 248.648706 
" style="fill:none;stroke:#808080;"/>
    <path clip-path="url(#p56764ffb2b)" d="M 654.56875 260.835917 
L 654.56875 219.589754 
" style="fill:none;stroke:#808080;"/>
    <path clip-path="url(#p56764ffb2b)" d="M 713.84375 256.867545 
L 713.84375 143.912671 
" style="fill:none;stroke:#808080;"/>
    <path clip-path="url(#p56764ffb2b)" d="M 773.11875 217.189326 
L 773.11875 193.072493 
" style="fill:none;stroke:#808080;"/>
    <path clip-path="url(#p56764ffb2b)" d="M 832.39375 266.534695 
L 832.39375 259.402664 
" style="fill:none;stroke:#808080;"/>
    <path clip-path="url(#p56764ffb2b)" d="M 891.66875 261.698343 
L 891.66875 220.623649 
" style="fill:none;stroke:#808080;"/>
   </g>
   <g id="line2d_41">
    <g clip-path="url(#p56764ffb2b)">
     <use style="fill:#808080;stroke:#808080;" x="536.01875" xlink:href="#m5c8c25d1e7" y="254.529001"/>
     <use style="fill:#808080;stroke:#808080;" x="595.29375" xlink:href="#m5c8c25d1e7" y="264.01441"/>
     <use style="fill:#808080;stroke:#808080;" x="654.56875" xlink:href="#m5c8c25d1e7" y="260.835917"/>
     <use style="fill:#808080;stroke:#808080;" x="713.84375" xlink:href="#m5c8c25d1e7" y="256.867545"/>
     <use style="fill:#808080;stroke:#808080;" x="773.11875" xlink:href="#m5c8c25d1e7" y="217.189326"/>
     <use style="fill:#808080;stroke:#808080;" x="832.39375" xlink:href="#m5c8c25d1e7" y="266.534695"/>
     <use style="fill:#808080;stroke:#808080;" x="891.66875" xlink:href="#m5c8c25d1e7" y="261.698343"/>
    </g>
   </g>
   <g id="line2d_42">
    <g clip-path="url(#p56764ffb2b)">
     <use style="fill:#808080;stroke:#808080;" x="536.01875" xlink:href="#m5c8c25d1e7" y="203.140826"/>
     <use style="fill:#808080;stroke:#808080;" x="595.29375" xlink:href="#m5c8c25d1e7" y="248.648706"/>
     <use style="fill:#808080;stroke:#808080;" x="654.56875" xlink:href="#m5c8c25d1e7" y="219.589754"/>
     <use style="fill:#808080;stroke:#808080;" x="713.84375" xlink:href="#m5c8c25d1e7" y="143.912671"/>
     <use style="fill:#808080;stroke:#808080;" x="773.11875" xlink:href="#m5c8c25d1e7" y="193.072493"/>
     <use style="fill:#808080;stroke:#808080;" x="832.39375" xlink:href="#m5c8c25d1e7" y="259.402664"/>
     <use style="fill:#808080;stroke:#808080;" x="891.66875" xlink:href="#m5c8c25d1e7" y="220.623649"/>
    </g>
   </g>
   <g id="patch_22">
    <path d="M 506.38125 264.865 
L 506.38125 45.84 
" style="fill:none;stroke:#000000;stroke-linecap:square;stroke-linejoin:miter;stroke-width:0.8;"/>
   </g>
   <g id="patch_23">
    <path d="M 921.30625 264.865 
L 921.30625 45.84 
" style="fill:none;stroke:#000000;stroke-linecap:square;stroke-linejoin:miter;stroke-width:0.8;"/>
   </g>
   <g id="patch_24">
    <path d="M 506.38125 264.865 
L 921.30625 264.865 
" style="fill:none;stroke:#000000;stroke-linecap:square;stroke-linejoin:miter;stroke-width:0.8;"/>
   </g>
   <g id="patch_25">
    <path d="M 506.38125 45.84 
L 921.30625 45.84 
" style="fill:none;stroke:#000000;stroke-linecap:square;stroke-linejoin:miter;stroke-width:0.8;"/>
   </g>
   <g id="text_30">
    <!-- LBH, ve-qatal, N=231 -->
    <g transform="translate(648.685625 39.84)scale(0.12 -0.12)">
     <defs>
      <path d="M 9.8125 72.90625 
L 19.671875 72.90625 
L 19.671875 8.296875 
L 55.171875 8.296875 
L 55.171875 0 
L 9.8125 0 
z
" id="DejaVuSans-76"/>
     </defs>
     <use xlink:href="#DejaVuSans-76"/>
     <use x="55.712891" xlink:href="#DejaVuSans-66"/>
     <use x="124.316406" xlink:href="#DejaVuSans-72"/>
     <use x="199.511719" xlink:href="#DejaVuSans-44"/>
     <use x="231.298828" xlink:href="#DejaVuSans-32"/>
     <use x="263.085938" xlink:href="#DejaVuSans-118"/>
     <use x="322.265625" xlink:href="#DejaVuSans-101"/>
     <use x="383.789062" xlink:href="#DejaVuSans-45"/>
     <use x="419.873047" xlink:href="#DejaVuSans-113"/>
     <use x="483.349609" xlink:href="#DejaVuSans-97"/>
     <use x="544.628906" xlink:href="#DejaVuSans-116"/>
     <use x="583.837891" xlink:href="#DejaVuSans-97"/>
     <use x="645.117188" xlink:href="#DejaVuSans-108"/>
     <use x="672.900391" xlink:href="#DejaVuSans-44"/>
     <use x="704.6875" xlink:href="#DejaVuSans-32"/>
     <use x="736.474609" xlink:href="#DejaVuSans-78"/>
     <use x="811.279297" xlink:href="#DejaVuSans-61"/>
     <use x="895.068359" xlink:href="#DejaVuSans-50"/>
     <use x="958.691406" xlink:href="#DejaVuSans-51"/>
     <use x="1022.314453" xlink:href="#DejaVuSans-49"/>
    </g>
   </g>
  </g>
  <g id="axes_3">
   <g id="patch_26">
    <path d="M 43.78125 571.065 
L 458.70625 571.065 
L 458.70625 352.04 
L 43.78125 352.04 
z
" style="fill:#ffffff;"/>
   </g>
   <g id="matplotlib.axis_5">
    <g id="xtick_15">
     <g id="line2d_43">
      <g>
       <use style="stroke:#000000;stroke-width:0.8;" x="73.41875" xlink:href="#m53c91fd257" y="571.065"/>
      </g>
     </g>
     <g id="text_31">
      <!-- PAST -->
      <g transform="translate(76.178125 602.754062)rotate(-90)scale(0.1 -0.1)">
       <use xlink:href="#DejaVuSans-80"/>
       <use x="53.927734" xlink:href="#DejaVuSans-65"/>
       <use x="122.335938" xlink:href="#DejaVuSans-83"/>
       <use x="185.8125" xlink:href="#DejaVuSans-84"/>
      </g>
     </g>
    </g>
    <g id="xtick_16">
     <g id="line2d_44">
      <g>
       <use style="stroke:#000000;stroke-width:0.8;" x="132.69375" xlink:href="#m53c91fd257" y="571.065"/>
      </g>
     </g>
     <g id="text_32">
      <!-- PRES PERF -->
      <g transform="translate(135.453125 631.936875)rotate(-90)scale(0.1 -0.1)">
       <use xlink:href="#DejaVuSans-80"/>
       <use x="60.302734" xlink:href="#DejaVuSans-82"/>
       <use x="129.785156" xlink:href="#DejaVuSans-69"/>
       <use x="192.96875" xlink:href="#DejaVuSans-83"/>
       <use x="256.445312" xlink:href="#DejaVuSans-32"/>
       <use x="288.232422" xlink:href="#DejaVuSans-80"/>
       <use x="348.535156" xlink:href="#DejaVuSans-69"/>
       <use x="411.71875" xlink:href="#DejaVuSans-82"/>
       <use x="481.201172" xlink:href="#DejaVuSans-70"/>
      </g>
     </g>
    </g>
    <g id="xtick_17">
     <g id="line2d_45">
      <g>
       <use style="stroke:#000000;stroke-width:0.8;" x="191.96875" xlink:href="#m53c91fd257" y="571.065"/>
      </g>
     </g>
     <g id="text_33">
      <!-- PRES -->
      <g transform="translate(194.728125 603.710312)rotate(-90)scale(0.1 -0.1)">
       <use xlink:href="#DejaVuSans-80"/>
       <use x="60.302734" xlink:href="#DejaVuSans-82"/>
       <use x="129.785156" xlink:href="#DejaVuSans-69"/>
       <use x="192.96875" xlink:href="#DejaVuSans-83"/>
      </g>
     </g>
    </g>
    <g id="xtick_18">
     <g id="line2d_46">
      <g>
       <use style="stroke:#000000;stroke-width:0.8;" x="251.24375" xlink:href="#m53c91fd257" y="571.065"/>
      </g>
     </g>
     <g id="text_34">
      <!-- MOD -->
      <g transform="translate(254.003125 602.265)rotate(-90)scale(0.1 -0.1)">
       <use xlink:href="#DejaVuSans-77"/>
       <use x="86.279297" xlink:href="#DejaVuSans-79"/>
       <use x="164.990234" xlink:href="#DejaVuSans-68"/>
      </g>
     </g>
    </g>
    <g id="xtick_19">
     <g id="line2d_47">
      <g>
       <use style="stroke:#000000;stroke-width:0.8;" x="310.51875" xlink:href="#m53c91fd257" y="571.065"/>
      </g>
     </g>
     <g id="text_35">
      <!-- IMPV -->
      <g transform="translate(313.278125 602.513437)rotate(-90)scale(0.1 -0.1)">
       <use xlink:href="#DejaVuSans-73"/>
       <use x="29.492188" xlink:href="#DejaVuSans-77"/>
       <use x="115.771484" xlink:href="#DejaVuSans-80"/>
       <use x="176.074219" xlink:href="#DejaVuSans-86"/>
      </g>
     </g>
    </g>
    <g id="xtick_20">
     <g id="line2d_48">
      <g>
       <use style="stroke:#000000;stroke-width:0.8;" x="369.79375" xlink:href="#m53c91fd257" y="571.065"/>
      </g>
     </g>
     <g id="text_36">
      <!-- PAST PERF -->
      <g transform="translate(372.553125 630.980625)rotate(-90)scale(0.1 -0.1)">
       <use xlink:href="#DejaVuSans-80"/>
       <use x="53.927734" xlink:href="#DejaVuSans-65"/>
       <use x="122.335938" xlink:href="#DejaVuSans-83"/>
       <use x="185.8125" xlink:href="#DejaVuSans-84"/>
       <use x="246.896484" xlink:href="#DejaVuSans-32"/>
       <use x="278.683594" xlink:href="#DejaVuSans-80"/>
       <use x="338.986328" xlink:href="#DejaVuSans-69"/>
       <use x="402.169922" xlink:href="#DejaVuSans-82"/>
       <use x="471.652344" xlink:href="#DejaVuSans-70"/>
      </g>
     </g>
    </g>
    <g id="xtick_21">
     <g id="line2d_49">
      <g>
       <use style="stroke:#000000;stroke-width:0.8;" x="429.06875" xlink:href="#m53c91fd257" y="571.065"/>
      </g>
     </g>
     <g id="text_37">
      <!-- FUT -->
      <g transform="translate(431.828125 597.243125)rotate(-90)scale(0.1 -0.1)">
       <use xlink:href="#DejaVuSans-70"/>
       <use x="57.519531" xlink:href="#DejaVuSans-85"/>
       <use x="130.712891" xlink:href="#DejaVuSans-84"/>
      </g>
     </g>
    </g>
   </g>
   <g id="matplotlib.axis_6">
    <g id="ytick_13">
     <g id="line2d_50">
      <path clip-path="url(#p3699dfa1d3)" d="M 43.78125 571.065 
L 458.70625 571.065 
" style="fill:none;stroke:#b0b0b0;stroke-linecap:square;stroke-width:0.8;"/>
     </g>
     <g id="line2d_51">
      <g>
       <use style="stroke:#000000;stroke-width:0.8;" x="43.78125" xlink:href="#mb99c516a15" y="571.065"/>
      </g>
     </g>
     <g id="text_38">
      <!-- 0.0 -->
      <g transform="translate(20.878125 574.864219)scale(0.1 -0.1)">
       <use xlink:href="#DejaVuSans-48"/>
       <use x="63.623047" xlink:href="#DejaVuSans-46"/>
       <use x="95.410156" xlink:href="#DejaVuSans-48"/>
      </g>
     </g>
    </g>
    <g id="ytick_14">
     <g id="line2d_52">
      <path clip-path="url(#p3699dfa1d3)" d="M 43.78125 527.26 
L 458.70625 527.26 
" style="fill:none;stroke:#b0b0b0;stroke-linecap:square;stroke-width:0.8;"/>
     </g>
     <g id="line2d_53">
      <g>
       <use style="stroke:#000000;stroke-width:0.8;" x="43.78125" xlink:href="#mb99c516a15" y="527.26"/>
      </g>
     </g>
     <g id="text_39">
      <!-- 0.2 -->
      <g transform="translate(20.878125 531.059219)scale(0.1 -0.1)">
       <use xlink:href="#DejaVuSans-48"/>
       <use x="63.623047" xlink:href="#DejaVuSans-46"/>
       <use x="95.410156" xlink:href="#DejaVuSans-50"/>
      </g>
     </g>
    </g>
    <g id="ytick_15">
     <g id="line2d_54">
      <path clip-path="url(#p3699dfa1d3)" d="M 43.78125 483.455 
L 458.70625 483.455 
" style="fill:none;stroke:#b0b0b0;stroke-linecap:square;stroke-width:0.8;"/>
     </g>
     <g id="line2d_55">
      <g>
       <use style="stroke:#000000;stroke-width:0.8;" x="43.78125" xlink:href="#mb99c516a15" y="483.455"/>
      </g>
     </g>
     <g id="text_40">
      <!-- 0.4 -->
      <g transform="translate(20.878125 487.254219)scale(0.1 -0.1)">
       <use xlink:href="#DejaVuSans-48"/>
       <use x="63.623047" xlink:href="#DejaVuSans-46"/>
       <use x="95.410156" xlink:href="#DejaVuSans-52"/>
      </g>
     </g>
    </g>
    <g id="ytick_16">
     <g id="line2d_56">
      <path clip-path="url(#p3699dfa1d3)" d="M 43.78125 439.65 
L 458.70625 439.65 
" style="fill:none;stroke:#b0b0b0;stroke-linecap:square;stroke-width:0.8;"/>
     </g>
     <g id="line2d_57">
      <g>
       <use style="stroke:#000000;stroke-width:0.8;" x="43.78125" xlink:href="#mb99c516a15" y="439.65"/>
      </g>
     </g>
     <g id="text_41">
      <!-- 0.6 -->
      <g transform="translate(20.878125 443.449219)scale(0.1 -0.1)">
       <use xlink:href="#DejaVuSans-48"/>
       <use x="63.623047" xlink:href="#DejaVuSans-46"/>
       <use x="95.410156" xlink:href="#DejaVuSans-54"/>
      </g>
     </g>
    </g>
    <g id="ytick_17">
     <g id="line2d_58">
      <path clip-path="url(#p3699dfa1d3)" d="M 43.78125 395.845 
L 458.70625 395.845 
" style="fill:none;stroke:#b0b0b0;stroke-linecap:square;stroke-width:0.8;"/>
     </g>
     <g id="line2d_59">
      <g>
       <use style="stroke:#000000;stroke-width:0.8;" x="43.78125" xlink:href="#mb99c516a15" y="395.845"/>
      </g>
     </g>
     <g id="text_42">
      <!-- 0.8 -->
      <g transform="translate(20.878125 399.644219)scale(0.1 -0.1)">
       <use xlink:href="#DejaVuSans-48"/>
       <use x="63.623047" xlink:href="#DejaVuSans-46"/>
       <use x="95.410156" xlink:href="#DejaVuSans-56"/>
      </g>
     </g>
    </g>
    <g id="ytick_18">
     <g id="line2d_60">
      <path clip-path="url(#p3699dfa1d3)" d="M 43.78125 352.04 
L 458.70625 352.04 
" style="fill:none;stroke:#b0b0b0;stroke-linecap:square;stroke-width:0.8;"/>
     </g>
     <g id="line2d_61">
      <g>
       <use style="stroke:#000000;stroke-width:0.8;" x="43.78125" xlink:href="#mb99c516a15" y="352.04"/>
      </g>
     </g>
     <g id="text_43">
      <!-- 1.0 -->
      <g transform="translate(20.878125 355.839219)scale(0.1 -0.1)">
       <use xlink:href="#DejaVuSans-49"/>
       <use x="63.623047" xlink:href="#DejaVuSans-46"/>
       <use x="95.410156" xlink:href="#DejaVuSans-48"/>
      </g>
     </g>
    </g>
    <g id="text_44">
     <!-- proportion of qatal in section -->
     <g transform="translate(14.798438 533.988437)rotate(-90)scale(0.1 -0.1)">
      <use xlink:href="#DejaVuSans-112"/>
      <use x="63.476562" xlink:href="#DejaVuSans-114"/>
      <use x="102.339844" xlink:href="#DejaVuSans-111"/>
      <use x="163.521484" xlink:href="#DejaVuSans-112"/>
      <use x="226.998047" xlink:href="#DejaVuSans-111"/>
      <use x="288.179688" xlink:href="#DejaVuSans-114"/>
      <use x="329.292969" xlink:href="#DejaVuSans-116"/>
      <use x="368.501953" xlink:href="#DejaVuSans-105"/>
      <use x="396.285156" xlink:href="#DejaVuSans-111"/>
      <use x="457.466797" xlink:href="#DejaVuSans-110"/>
      <use x="520.845703" xlink:href="#DejaVuSans-32"/>
      <use x="552.632812" xlink:href="#DejaVuSans-111"/>
      <use x="613.814453" xlink:href="#DejaVuSans-102"/>
      <use x="649.019531" xlink:href="#DejaVuSans-32"/>
      <use x="680.806641" xlink:href="#DejaVuSans-113"/>
      <use x="744.283203" xlink:href="#DejaVuSans-97"/>
      <use x="805.5625" xlink:href="#DejaVuSans-116"/>
      <use x="844.771484" xlink:href="#DejaVuSans-97"/>
      <use x="906.050781" xlink:href="#DejaVuSans-108"/>
      <use x="933.833984" xlink:href="#DejaVuSans-32"/>
      <use x="965.621094" xlink:href="#DejaVuSans-105"/>
      <use x="993.404297" xlink:href="#DejaVuSans-110"/>
      <use x="1056.783203" xlink:href="#DejaVuSans-32"/>
      <use x="1088.570312" xlink:href="#DejaVuSans-115"/>
      <use x="1140.669922" xlink:href="#DejaVuSans-101"/>
      <use x="1202.193359" xlink:href="#DejaVuSans-99"/>
      <use x="1257.173828" xlink:href="#DejaVuSans-116"/>
      <use x="1296.382812" xlink:href="#DejaVuSans-105"/>
      <use x="1324.166016" xlink:href="#DejaVuSans-111"/>
      <use x="1385.347656" xlink:href="#DejaVuSans-110"/>
     </g>
    </g>
   </g>
   <g id="patch_27">
    <path clip-path="url(#p3699dfa1d3)" d="M 58.6 571.065 
L 88.2375 571.065 
L 88.2375 463.09099 
L 58.6 463.09099 
z
" style="fill:#d3d3d3;stroke:#000000;stroke-linejoin:miter;"/>
   </g>
   <g id="patch_28">
    <path clip-path="url(#p3699dfa1d3)" d="M 117.875 571.065 
L 147.5125 571.065 
L 147.5125 516.358701 
L 117.875 516.358701 
z
" style="fill:#d3d3d3;stroke:#000000;stroke-linejoin:miter;"/>
   </g>
   <g id="patch_29">
    <path clip-path="url(#p3699dfa1d3)" d="M 177.15 571.065 
L 206.7875 571.065 
L 206.7875 554.241514 
L 177.15 554.241514 
z
" style="fill:#d3d3d3;stroke:#000000;stroke-linejoin:miter;"/>
   </g>
   <g id="patch_30">
    <path clip-path="url(#p3699dfa1d3)" d="M 236.425 571.065 
L 266.0625 571.065 
L 266.0625 569.186844 
L 236.425 569.186844 
z
" style="fill:#d3d3d3;stroke:#000000;stroke-linejoin:miter;"/>
   </g>
   <g id="patch_31">
    <path clip-path="url(#p3699dfa1d3)" d="M 295.7 571.065 
L 325.3375 571.065 
L 325.3375 568.667354 
L 295.7 568.667354 
z
" style="fill:#d3d3d3;stroke:#000000;stroke-linejoin:miter;"/>
   </g>
   <g id="patch_32">
    <path clip-path="url(#p3699dfa1d3)" d="M 354.975 571.065 
L 384.6125 571.065 
L 384.6125 536.45897 
L 354.975 536.45897 
z
" style="fill:#d3d3d3;stroke:#000000;stroke-linejoin:miter;"/>
   </g>
   <g id="patch_33">
    <path clip-path="url(#p3699dfa1d3)" d="M 414.25 571.065 
L 443.8875 571.065 
L 443.8875 570.425628 
L 414.25 570.425628 
z
" style="fill:#d3d3d3;stroke:#000000;stroke-linejoin:miter;"/>
   </g>
   <g id="LineCollection_3">
    <path clip-path="url(#p3699dfa1d3)" d="M 73.41875 477.45215 
L 73.41875 448.72983 
" style="fill:none;stroke:#808080;"/>
    <path clip-path="url(#p3699dfa1d3)" d="M 132.69375 535.952151 
L 132.69375 496.765251 
" style="fill:none;stroke:#808080;"/>
    <path clip-path="url(#p3699dfa1d3)" d="M 191.96875 560.229556 
L 191.96875 548.253473 
" style="fill:none;stroke:#808080;"/>
    <path clip-path="url(#p3699dfa1d3)" d="M 251.24375 570.702511 
L 251.24375 567.671177 
" style="fill:none;stroke:#808080;"/>
    <path clip-path="url(#p3699dfa1d3)" d="M 310.51875 570.493037 
L 310.51875 566.84167 
" style="fill:none;stroke:#808080;"/>
    <path clip-path="url(#p3699dfa1d3)" d="M 369.79375 549.638166 
L 369.79375 523.279774 
" style="fill:none;stroke:#808080;"/>
    <path clip-path="url(#p3699dfa1d3)" d="M 429.06875 571.53422 
L 429.06875 569.317035 
" style="fill:none;stroke:#808080;"/>
   </g>
   <g id="line2d_62">
    <g clip-path="url(#p3699dfa1d3)">
     <use style="fill:#808080;stroke:#808080;" x="73.41875" xlink:href="#m5c8c25d1e7" y="477.45215"/>
     <use style="fill:#808080;stroke:#808080;" x="132.69375" xlink:href="#m5c8c25d1e7" y="535.952151"/>
     <use style="fill:#808080;stroke:#808080;" x="191.96875" xlink:href="#m5c8c25d1e7" y="560.229556"/>
     <use style="fill:#808080;stroke:#808080;" x="251.24375" xlink:href="#m5c8c25d1e7" y="570.702511"/>
     <use style="fill:#808080;stroke:#808080;" x="310.51875" xlink:href="#m5c8c25d1e7" y="570.493037"/>
     <use style="fill:#808080;stroke:#808080;" x="369.79375" xlink:href="#m5c8c25d1e7" y="549.638166"/>
     <use style="fill:#808080;stroke:#808080;" x="429.06875" xlink:href="#m5c8c25d1e7" y="571.53422"/>
    </g>
   </g>
   <g id="line2d_63">
    <g clip-path="url(#p3699dfa1d3)">
     <use style="fill:#808080;stroke:#808080;" x="73.41875" xlink:href="#m5c8c25d1e7" y="448.72983"/>
     <use style="fill:#808080;stroke:#808080;" x="132.69375" xlink:href="#m5c8c25d1e7" y="496.765251"/>
     <use style="fill:#808080;stroke:#808080;" x="191.96875" xlink:href="#m5c8c25d1e7" y="548.253473"/>
     <use style="fill:#808080;stroke:#808080;" x="251.24375" xlink:href="#m5c8c25d1e7" y="567.671177"/>
     <use style="fill:#808080;stroke:#808080;" x="310.51875" xlink:href="#m5c8c25d1e7" y="566.84167"/>
     <use style="fill:#808080;stroke:#808080;" x="369.79375" xlink:href="#m5c8c25d1e7" y="523.279774"/>
     <use style="fill:#808080;stroke:#808080;" x="429.06875" xlink:href="#m5c8c25d1e7" y="569.317035"/>
    </g>
   </g>
   <g id="patch_34">
    <path d="M 43.78125 571.065 
L 43.78125 352.04 
" style="fill:none;stroke:#000000;stroke-linecap:square;stroke-linejoin:miter;stroke-width:0.8;"/>
   </g>
   <g id="patch_35">
    <path d="M 458.70625 571.065 
L 458.70625 352.04 
" style="fill:none;stroke:#000000;stroke-linecap:square;stroke-linejoin:miter;stroke-width:0.8;"/>
   </g>
   <g id="patch_36">
    <path d="M 43.78125 571.065 
L 458.70625 571.065 
" style="fill:none;stroke:#000000;stroke-linecap:square;stroke-linejoin:miter;stroke-width:0.8;"/>
   </g>
   <g id="patch_37">
    <path d="M 43.78125 352.04 
L 458.70625 352.04 
" style="fill:none;stroke:#000000;stroke-linecap:square;stroke-linejoin:miter;stroke-width:0.8;"/>
   </g>
   <g id="text_45">
    <!-- EBH, -qatal, N=5481 -->
    <g transform="translate(184.34 346.04)scale(0.12 -0.12)">
     <defs>
      <path d="M 58.890625 54.296875 
L 23.875 12.984375 
Q 26.90625 9.859375 30.828125 8.21875 
Q 34.765625 6.59375 39.40625 6.59375 
Q 50.140625 6.59375 56.421875 14.59375 
Q 62.703125 22.609375 62.703125 36.375 
Q 62.703125 41.84375 61.75 46.328125 
Q 60.796875 50.828125 58.890625 54.296875 
z
M 54.890625 59.8125 
Q 51.90625 62.9375 47.96875 64.578125 
Q 44.046875 66.21875 39.40625 66.21875 
Q 28.65625 66.21875 22.328125 58.203125 
Q 16.015625 50.203125 16.015625 36.375 
Q 16.015625 30.90625 16.96875 26.3125 
Q 17.921875 21.734375 19.828125 18.40625 
z
M 13.28125 10.6875 
Q 9.46875 15.671875 7.53125 22.109375 
Q 5.609375 28.5625 5.609375 36.375 
Q 5.609375 53.65625 14.8125 63.9375 
Q 24.03125 74.21875 39.40625 74.21875 
Q 45.75 74.21875 51.140625 72.328125 
Q 56.546875 70.453125 60.796875 66.796875 
L 68.703125 76.125 
L 73.6875 71.78125 
L 65.375 62.109375 
Q 69.1875 57.078125 71.140625 50.578125 
Q 73.09375 44.09375 73.09375 36.375 
Q 73.09375 19.140625 63.90625 8.859375 
Q 54.734375 -1.421875 39.40625 -1.421875 
Q 33.15625 -1.421875 27.75 0.40625 
Q 22.359375 2.25 17.921875 5.90625 
L 10.015625 -3.421875 
L 4.984375 0.875 
z
" id="DejaVuSans-216"/>
      <path d="M 10.796875 72.90625 
L 49.515625 72.90625 
L 49.515625 64.59375 
L 19.828125 64.59375 
L 19.828125 46.734375 
Q 21.96875 47.46875 24.109375 47.828125 
Q 26.265625 48.1875 28.421875 48.1875 
Q 40.625 48.1875 47.75 41.5 
Q 54.890625 34.8125 54.890625 23.390625 
Q 54.890625 11.625 47.5625 5.09375 
Q 40.234375 -1.421875 26.90625 -1.421875 
Q 22.3125 -1.421875 17.546875 -0.640625 
Q 12.796875 0.140625 7.71875 1.703125 
L 7.71875 11.625 
Q 12.109375 9.234375 16.796875 8.0625 
Q 21.484375 6.890625 26.703125 6.890625 
Q 35.15625 6.890625 40.078125 11.328125 
Q 45.015625 15.765625 45.015625 23.390625 
Q 45.015625 31 40.078125 35.4375 
Q 35.15625 39.890625 26.703125 39.890625 
Q 22.75 39.890625 18.8125 39.015625 
Q 14.890625 38.140625 10.796875 36.28125 
z
" id="DejaVuSans-53"/>
     </defs>
     <use xlink:href="#DejaVuSans-69"/>
     <use x="63.183594" xlink:href="#DejaVuSans-66"/>
     <use x="131.787109" xlink:href="#DejaVuSans-72"/>
     <use x="206.982422" xlink:href="#DejaVuSans-44"/>
     <use x="238.769531" xlink:href="#DejaVuSans-32"/>
     <use x="270.556641" xlink:href="#DejaVuSans-216"/>
     <use x="349.267578" xlink:href="#DejaVuSans-45"/>
     <use x="385.351562" xlink:href="#DejaVuSans-113"/>
     <use x="448.828125" xlink:href="#DejaVuSans-97"/>
     <use x="510.107422" xlink:href="#DejaVuSans-116"/>
     <use x="549.316406" xlink:href="#DejaVuSans-97"/>
     <use x="610.595703" xlink:href="#DejaVuSans-108"/>
     <use x="638.378906" xlink:href="#DejaVuSans-44"/>
     <use x="670.166016" xlink:href="#DejaVuSans-32"/>
     <use x="701.953125" xlink:href="#DejaVuSans-78"/>
     <use x="776.757812" xlink:href="#DejaVuSans-61"/>
     <use x="860.546875" xlink:href="#DejaVuSans-53"/>
     <use x="924.169922" xlink:href="#DejaVuSans-52"/>
     <use x="987.792969" xlink:href="#DejaVuSans-56"/>
     <use x="1051.416016" xlink:href="#DejaVuSans-49"/>
    </g>
   </g>
  </g>
  <g id="axes_4">
   <g id="patch_38">
    <path d="M 506.38125 571.065 
L 921.30625 571.065 
L 921.30625 352.04 
L 506.38125 352.04 
z
" style="fill:#ffffff;"/>
   </g>
   <g id="matplotlib.axis_7">
    <g id="xtick_22">
     <g id="line2d_64">
      <g>
       <use style="stroke:#000000;stroke-width:0.8;" x="536.01875" xlink:href="#m53c91fd257" y="571.065"/>
      </g>
     </g>
     <g id="text_46">
      <!-- PAST -->
      <g transform="translate(538.778125 602.754062)rotate(-90)scale(0.1 -0.1)">
       <use xlink:href="#DejaVuSans-80"/>
       <use x="53.927734" xlink:href="#DejaVuSans-65"/>
       <use x="122.335938" xlink:href="#DejaVuSans-83"/>
       <use x="185.8125" xlink:href="#DejaVuSans-84"/>
      </g>
     </g>
    </g>
    <g id="xtick_23">
     <g id="line2d_65">
      <g>
       <use style="stroke:#000000;stroke-width:0.8;" x="595.29375" xlink:href="#m53c91fd257" y="571.065"/>
      </g>
     </g>
     <g id="text_47">
      <!-- PRES PERF -->
      <g transform="translate(598.053125 631.936875)rotate(-90)scale(0.1 -0.1)">
       <use xlink:href="#DejaVuSans-80"/>
       <use x="60.302734" xlink:href="#DejaVuSans-82"/>
       <use x="129.785156" xlink:href="#DejaVuSans-69"/>
       <use x="192.96875" xlink:href="#DejaVuSans-83"/>
       <use x="256.445312" xlink:href="#DejaVuSans-32"/>
       <use x="288.232422" xlink:href="#DejaVuSans-80"/>
       <use x="348.535156" xlink:href="#DejaVuSans-69"/>
       <use x="411.71875" xlink:href="#DejaVuSans-82"/>
       <use x="481.201172" xlink:href="#DejaVuSans-70"/>
      </g>
     </g>
    </g>
    <g id="xtick_24">
     <g id="line2d_66">
      <g>
       <use style="stroke:#000000;stroke-width:0.8;" x="654.56875" xlink:href="#m53c91fd257" y="571.065"/>
      </g>
     </g>
     <g id="text_48">
      <!-- PRES -->
      <g transform="translate(657.328125 603.710312)rotate(-90)scale(0.1 -0.1)">
       <use xlink:href="#DejaVuSans-80"/>
       <use x="60.302734" xlink:href="#DejaVuSans-82"/>
       <use x="129.785156" xlink:href="#DejaVuSans-69"/>
       <use x="192.96875" xlink:href="#DejaVuSans-83"/>
      </g>
     </g>
    </g>
    <g id="xtick_25">
     <g id="line2d_67">
      <g>
       <use style="stroke:#000000;stroke-width:0.8;" x="713.84375" xlink:href="#m53c91fd257" y="571.065"/>
      </g>
     </g>
     <g id="text_49">
      <!-- MOD -->
      <g transform="translate(716.603125 602.265)rotate(-90)scale(0.1 -0.1)">
       <use xlink:href="#DejaVuSans-77"/>
       <use x="86.279297" xlink:href="#DejaVuSans-79"/>
       <use x="164.990234" xlink:href="#DejaVuSans-68"/>
      </g>
     </g>
    </g>
    <g id="xtick_26">
     <g id="line2d_68">
      <g>
       <use style="stroke:#000000;stroke-width:0.8;" x="773.11875" xlink:href="#m53c91fd257" y="571.065"/>
      </g>
     </g>
     <g id="text_50">
      <!-- IMPV -->
      <g transform="translate(775.878125 602.513437)rotate(-90)scale(0.1 -0.1)">
       <use xlink:href="#DejaVuSans-73"/>
       <use x="29.492188" xlink:href="#DejaVuSans-77"/>
       <use x="115.771484" xlink:href="#DejaVuSans-80"/>
       <use x="176.074219" xlink:href="#DejaVuSans-86"/>
      </g>
     </g>
    </g>
    <g id="xtick_27">
     <g id="line2d_69">
      <g>
       <use style="stroke:#000000;stroke-width:0.8;" x="832.39375" xlink:href="#m53c91fd257" y="571.065"/>
      </g>
     </g>
     <g id="text_51">
      <!-- PAST PERF -->
      <g transform="translate(835.153125 630.980625)rotate(-90)scale(0.1 -0.1)">
       <use xlink:href="#DejaVuSans-80"/>
       <use x="53.927734" xlink:href="#DejaVuSans-65"/>
       <use x="122.335938" xlink:href="#DejaVuSans-83"/>
       <use x="185.8125" xlink:href="#DejaVuSans-84"/>
       <use x="246.896484" xlink:href="#DejaVuSans-32"/>
       <use x="278.683594" xlink:href="#DejaVuSans-80"/>
       <use x="338.986328" xlink:href="#DejaVuSans-69"/>
       <use x="402.169922" xlink:href="#DejaVuSans-82"/>
       <use x="471.652344" xlink:href="#DejaVuSans-70"/>
      </g>
     </g>
    </g>
    <g id="xtick_28">
     <g id="line2d_70">
      <g>
       <use style="stroke:#000000;stroke-width:0.8;" x="891.66875" xlink:href="#m53c91fd257" y="571.065"/>
      </g>
     </g>
     <g id="text_52">
      <!-- FUT -->
      <g transform="translate(894.428125 597.243125)rotate(-90)scale(0.1 -0.1)">
       <use xlink:href="#DejaVuSans-70"/>
       <use x="57.519531" xlink:href="#DejaVuSans-85"/>
       <use x="130.712891" xlink:href="#DejaVuSans-84"/>
      </g>
     </g>
    </g>
   </g>
   <g id="matplotlib.axis_8">
    <g id="ytick_19">
     <g id="line2d_71">
      <path clip-path="url(#pab88ffe455)" d="M 506.38125 571.065 
L 921.30625 571.065 
" style="fill:none;stroke:#b0b0b0;stroke-linecap:square;stroke-width:0.8;"/>
     </g>
     <g id="line2d_72">
      <g>
       <use style="stroke:#000000;stroke-width:0.8;" x="506.38125" xlink:href="#mb99c516a15" y="571.065"/>
      </g>
     </g>
     <g id="text_53">
      <!-- 0.0 -->
      <g transform="translate(483.478125 574.864219)scale(0.1 -0.1)">
       <use xlink:href="#DejaVuSans-48"/>
       <use x="63.623047" xlink:href="#DejaVuSans-46"/>
       <use x="95.410156" xlink:href="#DejaVuSans-48"/>
      </g>
     </g>
    </g>
    <g id="ytick_20">
     <g id="line2d_73">
      <path clip-path="url(#pab88ffe455)" d="M 506.38125 527.26 
L 921.30625 527.26 
" style="fill:none;stroke:#b0b0b0;stroke-linecap:square;stroke-width:0.8;"/>
     </g>
     <g id="line2d_74">
      <g>
       <use style="stroke:#000000;stroke-width:0.8;" x="506.38125" xlink:href="#mb99c516a15" y="527.26"/>
      </g>
     </g>
     <g id="text_54">
      <!-- 0.2 -->
      <g transform="translate(483.478125 531.059219)scale(0.1 -0.1)">
       <use xlink:href="#DejaVuSans-48"/>
       <use x="63.623047" xlink:href="#DejaVuSans-46"/>
       <use x="95.410156" xlink:href="#DejaVuSans-50"/>
      </g>
     </g>
    </g>
    <g id="ytick_21">
     <g id="line2d_75">
      <path clip-path="url(#pab88ffe455)" d="M 506.38125 483.455 
L 921.30625 483.455 
" style="fill:none;stroke:#b0b0b0;stroke-linecap:square;stroke-width:0.8;"/>
     </g>
     <g id="line2d_76">
      <g>
       <use style="stroke:#000000;stroke-width:0.8;" x="506.38125" xlink:href="#mb99c516a15" y="483.455"/>
      </g>
     </g>
     <g id="text_55">
      <!-- 0.4 -->
      <g transform="translate(483.478125 487.254219)scale(0.1 -0.1)">
       <use xlink:href="#DejaVuSans-48"/>
       <use x="63.623047" xlink:href="#DejaVuSans-46"/>
       <use x="95.410156" xlink:href="#DejaVuSans-52"/>
      </g>
     </g>
    </g>
    <g id="ytick_22">
     <g id="line2d_77">
      <path clip-path="url(#pab88ffe455)" d="M 506.38125 439.65 
L 921.30625 439.65 
" style="fill:none;stroke:#b0b0b0;stroke-linecap:square;stroke-width:0.8;"/>
     </g>
     <g id="line2d_78">
      <g>
       <use style="stroke:#000000;stroke-width:0.8;" x="506.38125" xlink:href="#mb99c516a15" y="439.65"/>
      </g>
     </g>
     <g id="text_56">
      <!-- 0.6 -->
      <g transform="translate(483.478125 443.449219)scale(0.1 -0.1)">
       <use xlink:href="#DejaVuSans-48"/>
       <use x="63.623047" xlink:href="#DejaVuSans-46"/>
       <use x="95.410156" xlink:href="#DejaVuSans-54"/>
      </g>
     </g>
    </g>
    <g id="ytick_23">
     <g id="line2d_79">
      <path clip-path="url(#pab88ffe455)" d="M 506.38125 395.845 
L 921.30625 395.845 
" style="fill:none;stroke:#b0b0b0;stroke-linecap:square;stroke-width:0.8;"/>
     </g>
     <g id="line2d_80">
      <g>
       <use style="stroke:#000000;stroke-width:0.8;" x="506.38125" xlink:href="#mb99c516a15" y="395.845"/>
      </g>
     </g>
     <g id="text_57">
      <!-- 0.8 -->
      <g transform="translate(483.478125 399.644219)scale(0.1 -0.1)">
       <use xlink:href="#DejaVuSans-48"/>
       <use x="63.623047" xlink:href="#DejaVuSans-46"/>
       <use x="95.410156" xlink:href="#DejaVuSans-56"/>
      </g>
     </g>
    </g>
    <g id="ytick_24">
     <g id="line2d_81">
      <path clip-path="url(#pab88ffe455)" d="M 506.38125 352.04 
L 921.30625 352.04 
" style="fill:none;stroke:#b0b0b0;stroke-linecap:square;stroke-width:0.8;"/>
     </g>
     <g id="line2d_82">
      <g>
       <use style="stroke:#000000;stroke-width:0.8;" x="506.38125" xlink:href="#mb99c516a15" y="352.04"/>
      </g>
     </g>
     <g id="text_58">
      <!-- 1.0 -->
      <g transform="translate(483.478125 355.839219)scale(0.1 -0.1)">
       <use xlink:href="#DejaVuSans-49"/>
       <use x="63.623047" xlink:href="#DejaVuSans-46"/>
       <use x="95.410156" xlink:href="#DejaVuSans-48"/>
      </g>
     </g>
    </g>
    <g id="text_59">
     <!-- proportion of qatal in section -->
     <g transform="translate(477.398437 533.988437)rotate(-90)scale(0.1 -0.1)">
      <use xlink:href="#DejaVuSans-112"/>
      <use x="63.476562" xlink:href="#DejaVuSans-114"/>
      <use x="102.339844" xlink:href="#DejaVuSans-111"/>
      <use x="163.521484" xlink:href="#DejaVuSans-112"/>
      <use x="226.998047" xlink:href="#DejaVuSans-111"/>
      <use x="288.179688" xlink:href="#DejaVuSans-114"/>
      <use x="329.292969" xlink:href="#DejaVuSans-116"/>
      <use x="368.501953" xlink:href="#DejaVuSans-105"/>
      <use x="396.285156" xlink:href="#DejaVuSans-111"/>
      <use x="457.466797" xlink:href="#DejaVuSans-110"/>
      <use x="520.845703" xlink:href="#DejaVuSans-32"/>
      <use x="552.632812" xlink:href="#DejaVuSans-111"/>
      <use x="613.814453" xlink:href="#DejaVuSans-102"/>
      <use x="649.019531" xlink:href="#DejaVuSans-32"/>
      <use x="680.806641" xlink:href="#DejaVuSans-113"/>
      <use x="744.283203" xlink:href="#DejaVuSans-97"/>
      <use x="805.5625" xlink:href="#DejaVuSans-116"/>
      <use x="844.771484" xlink:href="#DejaVuSans-97"/>
      <use x="906.050781" xlink:href="#DejaVuSans-108"/>
      <use x="933.833984" xlink:href="#DejaVuSans-32"/>
      <use x="965.621094" xlink:href="#DejaVuSans-105"/>
      <use x="993.404297" xlink:href="#DejaVuSans-110"/>
      <use x="1056.783203" xlink:href="#DejaVuSans-32"/>
      <use x="1088.570312" xlink:href="#DejaVuSans-115"/>
      <use x="1140.669922" xlink:href="#DejaVuSans-101"/>
      <use x="1202.193359" xlink:href="#DejaVuSans-99"/>
      <use x="1257.173828" xlink:href="#DejaVuSans-116"/>
      <use x="1296.382812" xlink:href="#DejaVuSans-105"/>
      <use x="1324.166016" xlink:href="#DejaVuSans-111"/>
      <use x="1385.347656" xlink:href="#DejaVuSans-110"/>
     </g>
    </g>
   </g>
   <g id="patch_39">
    <path clip-path="url(#pab88ffe455)" d="M 521.2 571.065 
L 550.8375 571.065 
L 550.8375 438.892229 
L 521.2 438.892229 
z
" style="fill:#d3d3d3;stroke:#000000;stroke-linejoin:miter;"/>
   </g>
   <g id="patch_40">
    <path clip-path="url(#pab88ffe455)" d="M 580.475 571.065 
L 610.1125 571.065 
L 610.1125 539.005452 
L 580.475 539.005452 
z
" style="fill:#d3d3d3;stroke:#000000;stroke-linejoin:miter;"/>
   </g>
   <g id="patch_41">
    <path clip-path="url(#pab88ffe455)" d="M 639.75 571.065 
L 669.3875 571.065 
L 669.3875 560.427059 
L 639.75 560.427059 
z
" style="fill:#d3d3d3;stroke:#000000;stroke-linejoin:miter;"/>
   </g>
   <g id="patch_42">
    <path clip-path="url(#pab88ffe455)" d="M 699.025 571.065 
L 728.6625 571.065 
L 728.6625 569.024847 
L 699.025 569.024847 
z
" style="fill:#d3d3d3;stroke:#000000;stroke-linejoin:miter;"/>
   </g>
   <g id="patch_43">
    <path clip-path="url(#pab88ffe455)" d="M 758.3 571.065 
L 787.9375 571.065 
L 787.9375 570.336374 
L 758.3 570.336374 
z
" style="fill:#d3d3d3;stroke:#000000;stroke-linejoin:miter;"/>
   </g>
   <g id="patch_44">
    <path clip-path="url(#pab88ffe455)" d="M 817.575 571.065 
L 847.2125 571.065 
L 847.2125 529.970489 
L 817.575 529.970489 
z
" style="fill:#d3d3d3;stroke:#000000;stroke-linejoin:miter;"/>
   </g>
   <g id="patch_45">
    <path clip-path="url(#pab88ffe455)" d="M 876.85 571.065 
L 906.4875 571.065 
L 906.4875 570.77355 
L 876.85 570.77355 
z
" style="fill:#d3d3d3;stroke:#000000;stroke-linejoin:miter;"/>
   </g>
   <g id="LineCollection_4">
    <path clip-path="url(#pab88ffe455)" d="M 536.01875 462.245475 
L 536.01875 415.538983 
" style="fill:none;stroke:#808080;"/>
    <path clip-path="url(#pab88ffe455)" d="M 595.29375 559.487604 
L 595.29375 518.523301 
" style="fill:none;stroke:#808080;"/>
    <path clip-path="url(#pab88ffe455)" d="M 654.56875 575.831958 
L 654.56875 545.02216 
" style="fill:none;stroke:#808080;"/>
    <path clip-path="url(#pab88ffe455)" d="M 713.84375 569.807304 
L 713.84375 568.24239 
" style="fill:none;stroke:#808080;"/>
    <path clip-path="url(#pab88ffe455)" d="M 773.11875 571.341412 
L 773.11875 569.331336 
" style="fill:none;stroke:#808080;"/>
    <path clip-path="url(#pab88ffe455)" d="M 832.39375 545.524144 
L 832.39375 514.416834 
" style="fill:none;stroke:#808080;"/>
    <path clip-path="url(#pab88ffe455)" d="M 891.66875 571.395536 
L 891.66875 570.151563 
" style="fill:none;stroke:#808080;"/>
   </g>
   <g id="line2d_83">
    <g clip-path="url(#pab88ffe455)">
     <use style="fill:#808080;stroke:#808080;" x="536.01875" xlink:href="#m5c8c25d1e7" y="462.245475"/>
     <use style="fill:#808080;stroke:#808080;" x="595.29375" xlink:href="#m5c8c25d1e7" y="559.487604"/>
     <use style="fill:#808080;stroke:#808080;" x="654.56875" xlink:href="#m5c8c25d1e7" y="575.831958"/>
     <use style="fill:#808080;stroke:#808080;" x="713.84375" xlink:href="#m5c8c25d1e7" y="569.807304"/>
     <use style="fill:#808080;stroke:#808080;" x="773.11875" xlink:href="#m5c8c25d1e7" y="571.341412"/>
     <use style="fill:#808080;stroke:#808080;" x="832.39375" xlink:href="#m5c8c25d1e7" y="545.524144"/>
     <use style="fill:#808080;stroke:#808080;" x="891.66875" xlink:href="#m5c8c25d1e7" y="571.395536"/>
    </g>
   </g>
   <g id="line2d_84">
    <g clip-path="url(#pab88ffe455)">
     <use style="fill:#808080;stroke:#808080;" x="536.01875" xlink:href="#m5c8c25d1e7" y="415.538983"/>
     <use style="fill:#808080;stroke:#808080;" x="595.29375" xlink:href="#m5c8c25d1e7" y="518.523301"/>
     <use style="fill:#808080;stroke:#808080;" x="654.56875" xlink:href="#m5c8c25d1e7" y="545.02216"/>
     <use style="fill:#808080;stroke:#808080;" x="713.84375" xlink:href="#m5c8c25d1e7" y="568.24239"/>
     <use style="fill:#808080;stroke:#808080;" x="773.11875" xlink:href="#m5c8c25d1e7" y="569.331336"/>
     <use style="fill:#808080;stroke:#808080;" x="832.39375" xlink:href="#m5c8c25d1e7" y="514.416834"/>
     <use style="fill:#808080;stroke:#808080;" x="891.66875" xlink:href="#m5c8c25d1e7" y="570.151563"/>
    </g>
   </g>
   <g id="patch_46">
    <path d="M 506.38125 571.065 
L 506.38125 352.04 
" style="fill:none;stroke:#000000;stroke-linecap:square;stroke-linejoin:miter;stroke-width:0.8;"/>
   </g>
   <g id="patch_47">
    <path d="M 921.30625 571.065 
L 921.30625 352.04 
" style="fill:none;stroke:#000000;stroke-linecap:square;stroke-linejoin:miter;stroke-width:0.8;"/>
   </g>
   <g id="patch_48">
    <path d="M 506.38125 571.065 
L 921.30625 571.065 
" style="fill:none;stroke:#000000;stroke-linecap:square;stroke-linejoin:miter;stroke-width:0.8;"/>
   </g>
   <g id="patch_49">
    <path d="M 506.38125 352.04 
L 921.30625 352.04 
" style="fill:none;stroke:#000000;stroke-linecap:square;stroke-linejoin:miter;stroke-width:0.8;"/>
   </g>
   <g id="text_60">
    <!-- LBH, -qatal, N=1503 -->
    <g transform="translate(647.388125 346.04)scale(0.12 -0.12)">
     <use xlink:href="#DejaVuSans-76"/>
     <use x="55.712891" xlink:href="#DejaVuSans-66"/>
     <use x="124.316406" xlink:href="#DejaVuSans-72"/>
     <use x="199.511719" xlink:href="#DejaVuSans-44"/>
     <use x="231.298828" xlink:href="#DejaVuSans-32"/>
     <use x="263.085938" xlink:href="#DejaVuSans-216"/>
     <use x="341.796875" xlink:href="#DejaVuSans-45"/>
     <use x="377.880859" xlink:href="#DejaVuSans-113"/>
     <use x="441.357422" xlink:href="#DejaVuSans-97"/>
     <use x="502.636719" xlink:href="#DejaVuSans-116"/>
     <use x="541.845703" xlink:href="#DejaVuSans-97"/>
     <use x="603.125" xlink:href="#DejaVuSans-108"/>
     <use x="630.908203" xlink:href="#DejaVuSans-44"/>
     <use x="662.695312" xlink:href="#DejaVuSans-32"/>
     <use x="694.482422" xlink:href="#DejaVuSans-78"/>
     <use x="769.287109" xlink:href="#DejaVuSans-61"/>
     <use x="853.076172" xlink:href="#DejaVuSans-49"/>
     <use x="916.699219" xlink:href="#DejaVuSans-53"/>
     <use x="980.322266" xlink:href="#DejaVuSans-48"/>
     <use x="1043.945312" xlink:href="#DejaVuSans-51"/>
    </g>
   </g>
  </g>
  <g id="text_61">
   <!-- ESV translation of qatal by period and waw status -->
   <g transform="translate(289.252813 17.837812)scale(0.14 -0.14)">
    <defs>
     <path d="M 48.6875 27.296875 
Q 48.6875 37.203125 44.609375 42.84375 
Q 40.53125 48.484375 33.40625 48.484375 
Q 26.265625 48.484375 22.1875 42.84375 
Q 18.109375 37.203125 18.109375 27.296875 
Q 18.109375 17.390625 22.1875 11.75 
Q 26.265625 6.109375 33.40625 6.109375 
Q 40.53125 6.109375 44.609375 11.75 
Q 48.6875 17.390625 48.6875 27.296875 
z
M 18.109375 46.390625 
Q 20.953125 51.265625 25.265625 53.625 
Q 29.59375 56 35.59375 56 
Q 45.5625 56 51.78125 48.09375 
Q 58.015625 40.1875 58.015625 27.296875 
Q 58.015625 14.40625 51.78125 6.484375 
Q 45.5625 -1.421875 35.59375 -1.421875 
Q 29.59375 -1.421875 25.265625 0.953125 
Q 20.953125 3.328125 18.109375 8.203125 
L 18.109375 0 
L 9.078125 0 
L 9.078125 75.984375 
L 18.109375 75.984375 
z
" id="DejaVuSans-98"/>
     <path d="M 32.171875 -5.078125 
Q 28.375 -14.84375 24.75 -17.8125 
Q 21.140625 -20.796875 15.09375 -20.796875 
L 7.90625 -20.796875 
L 7.90625 -13.28125 
L 13.1875 -13.28125 
Q 16.890625 -13.28125 18.9375 -11.515625 
Q 21 -9.765625 23.484375 -3.21875 
L 25.09375 0.875 
L 2.984375 54.6875 
L 12.5 54.6875 
L 29.59375 11.921875 
L 46.6875 54.6875 
L 56.203125 54.6875 
z
" id="DejaVuSans-121"/>
     <path d="M 45.40625 46.390625 
L 45.40625 75.984375 
L 54.390625 75.984375 
L 54.390625 0 
L 45.40625 0 
L 45.40625 8.203125 
Q 42.578125 3.328125 38.25 0.953125 
Q 33.9375 -1.421875 27.875 -1.421875 
Q 17.96875 -1.421875 11.734375 6.484375 
Q 5.515625 14.40625 5.515625 27.296875 
Q 5.515625 40.1875 11.734375 48.09375 
Q 17.96875 56 27.875 56 
Q 33.9375 56 38.25 53.625 
Q 42.578125 51.265625 45.40625 46.390625 
z
M 14.796875 27.296875 
Q 14.796875 17.390625 18.875 11.75 
Q 22.953125 6.109375 30.078125 6.109375 
Q 37.203125 6.109375 41.296875 11.75 
Q 45.40625 17.390625 45.40625 27.296875 
Q 45.40625 37.203125 41.296875 42.84375 
Q 37.203125 48.484375 30.078125 48.484375 
Q 22.953125 48.484375 18.875 42.84375 
Q 14.796875 37.203125 14.796875 27.296875 
z
" id="DejaVuSans-100"/>
     <path d="M 4.203125 54.6875 
L 13.1875 54.6875 
L 24.421875 12.015625 
L 35.59375 54.6875 
L 46.1875 54.6875 
L 57.421875 12.015625 
L 68.609375 54.6875 
L 77.59375 54.6875 
L 63.28125 0 
L 52.6875 0 
L 40.921875 44.828125 
L 29.109375 0 
L 18.5 0 
z
" id="DejaVuSans-119"/>
     <path d="M 8.5 21.578125 
L 8.5 54.6875 
L 17.484375 54.6875 
L 17.484375 21.921875 
Q 17.484375 14.15625 20.5 10.265625 
Q 23.53125 6.390625 29.59375 6.390625 
Q 36.859375 6.390625 41.078125 11.03125 
Q 45.3125 15.671875 45.3125 23.6875 
L 45.3125 54.6875 
L 54.296875 54.6875 
L 54.296875 0 
L 45.3125 0 
L 45.3125 8.40625 
Q 42.046875 3.421875 37.71875 1 
Q 33.40625 -1.421875 27.6875 -1.421875 
Q 18.265625 -1.421875 13.375 4.4375 
Q 8.5 10.296875 8.5 21.578125 
z
M 31.109375 56 
z
" id="DejaVuSans-117"/>
    </defs>
    <use xlink:href="#DejaVuSans-69"/>
    <use x="63.183594" xlink:href="#DejaVuSans-83"/>
    <use x="126.660156" xlink:href="#DejaVuSans-86"/>
    <use x="195.068359" xlink:href="#DejaVuSans-32"/>
    <use x="226.855469" xlink:href="#DejaVuSans-116"/>
    <use x="266.064453" xlink:href="#DejaVuSans-114"/>
    <use x="307.177734" xlink:href="#DejaVuSans-97"/>
    <use x="368.457031" xlink:href="#DejaVuSans-110"/>
    <use x="431.835938" xlink:href="#DejaVuSans-115"/>
    <use x="483.935547" xlink:href="#DejaVuSans-108"/>
    <use x="511.71875" xlink:href="#DejaVuSans-97"/>
    <use x="572.998047" xlink:href="#DejaVuSans-116"/>
    <use x="612.207031" xlink:href="#DejaVuSans-105"/>
    <use x="639.990234" xlink:href="#DejaVuSans-111"/>
    <use x="701.171875" xlink:href="#DejaVuSans-110"/>
    <use x="764.550781" xlink:href="#DejaVuSans-32"/>
    <use x="796.337891" xlink:href="#DejaVuSans-111"/>
    <use x="857.519531" xlink:href="#DejaVuSans-102"/>
    <use x="892.724609" xlink:href="#DejaVuSans-32"/>
    <use x="924.511719" xlink:href="#DejaVuSans-113"/>
    <use x="987.988281" xlink:href="#DejaVuSans-97"/>
    <use x="1049.267578" xlink:href="#DejaVuSans-116"/>
    <use x="1088.476562" xlink:href="#DejaVuSans-97"/>
    <use x="1149.755859" xlink:href="#DejaVuSans-108"/>
    <use x="1177.539062" xlink:href="#DejaVuSans-32"/>
    <use x="1209.326172" xlink:href="#DejaVuSans-98"/>
    <use x="1272.802734" xlink:href="#DejaVuSans-121"/>
    <use x="1331.982422" xlink:href="#DejaVuSans-32"/>
    <use x="1363.769531" xlink:href="#DejaVuSans-112"/>
    <use x="1427.246094" xlink:href="#DejaVuSans-101"/>
    <use x="1488.769531" xlink:href="#DejaVuSans-114"/>
    <use x="1529.882812" xlink:href="#DejaVuSans-105"/>
    <use x="1557.666016" xlink:href="#DejaVuSans-111"/>
    <use x="1618.847656" xlink:href="#DejaVuSans-100"/>
    <use x="1682.324219" xlink:href="#DejaVuSans-32"/>
    <use x="1714.111328" xlink:href="#DejaVuSans-97"/>
    <use x="1775.390625" xlink:href="#DejaVuSans-110"/>
    <use x="1838.769531" xlink:href="#DejaVuSans-100"/>
    <use x="1902.246094" xlink:href="#DejaVuSans-32"/>
    <use x="1934.033203" xlink:href="#DejaVuSans-119"/>
    <use x="2015.820312" xlink:href="#DejaVuSans-97"/>
    <use x="2077.099609" xlink:href="#DejaVuSans-119"/>
    <use x="2158.886719" xlink:href="#DejaVuSans-32"/>
    <use x="2190.673828" xlink:href="#DejaVuSans-115"/>
    <use x="2242.773438" xlink:href="#DejaVuSans-116"/>
    <use x="2281.982422" xlink:href="#DejaVuSans-97"/>
    <use x="2343.261719" xlink:href="#DejaVuSans-116"/>
    <use x="2382.470703" xlink:href="#DejaVuSans-117"/>
    <use x="2445.849609" xlink:href="#DejaVuSans-115"/>
   </g>
  </g>
 </g>
 <defs>
  <clipPath id="p05c4535515">
   <rect height="219.025" width="414.925" x="43.78125" y="45.84"/>
  </clipPath>
  <clipPath id="p56764ffb2b">
   <rect height="219.025" width="414.925" x="506.38125" y="45.84"/>
  </clipPath>
  <clipPath id="p3699dfa1d3">
   <rect height="219.025" width="414.925" x="43.78125" y="352.04"/>
  </clipPath>
  <clipPath id="pab88ffe455">
   <rect height="219.025" width="414.925" x="506.38125" y="352.04"/>
  </clipPath>
 </defs>
</svg>
